<svg version="1" xmlns="http://www.w3.org/2000/svg" width="225.333" height="225.333" viewBox="0 0 169.000000 169.000000"><path d="M67.9 1.4c-14.3 3-26.4 9.5-37.8 20.1C12.6 38 4 59.3 5.3 83c.4 5.8 1.4 13.2 2.2 16.5 2.4 8.8 8.7 21.1 14.5 28.3l5.1 6.3-3.1 15.5c-3 14.8-3.1 15.7-1.4 17.5.9 1 2.5 1.9 3.6 1.9 1 0 8.4-3.4 16.4-7.6l14.6-7.7 7.6 1.9c11.1 2.7 29.1 2.6 39.5-.4 27.6-7.9 48.3-28.5 55.8-55.9 3-10.7 3-28.5 0-39.7-4.3-16.1-13.6-31-25.9-41.2-7.4-6.1-21.6-13.6-30.2-16-7.8-2.1-27.9-2.7-36.1-1zm13.7 27.1c2.7 1.1 4 2.6 5.9 7C92.9 47.6 95.6 64.2 93 69c-.7 1.4-.6 3 .6 5.9 1.2 3.1 1.3 4.4.4 6.1-1 2-.8 2.7 2.4 5.9 3.3 3.4 3.6 4.1 3.6 9.7s.2 6.1 3.1 7.8c3.3 1.9 3.3 2 1.3 10.7-.5 2.2.2 3.5 3.1 6.8l3.8 4.2-1.8 3.3c-1 1.9-2.6 4.4-3.6 5.7l-1.7 2.3-6.6-1.8-6.6-1.8V122l-4.6-2.8c-4.5-2.7-4.5-2.7-3.9-7 .6-3.9.3-4.7-3.3-9.2-3.6-4.4-3.9-5.4-3.5-9.3.5-3.8.3-4.4-2-5.4-1.5-.7-3.1-2.7-3.8-4.7-.7-2-1.6-3.6-2.1-3.6-1.6 0-7.8-6.3-10.7-10.9-5.2-8-10.4-21.9-9.6-25.7 1.9-10.2 23.2-19.5 34.1-14.9z"/><path d="M67 32.9c-8.6 2.7-15 8.2-15 13 0 3.3 8.8 21.6 12.4 25.8 3.5 4.1 5.3 4.1 15.6.2 10.1-3.9 10.9-5.1 9.2-15.1-1.5-8.7-5.5-20.3-7.8-22.9-1.8-2-9.3-2.5-14.4-1zm11.3 8.3c2.5 5.2 1.2 7-7.3 10.1-7.8 2.9-9.4 2.7-11.5-1.4-2.8-5.4-1.5-7.3 7.5-10.7 7.3-2.8 9.1-2.5 11.3 2z"/><path d="M67.3 43.8c-4.1 1.5-5.4 3.4-3.4 4.7 1.5.8 10.6-3.1 10.6-4.6 0-2-2.4-2-7.2-.1zm17.4 31.4c-1.5 1.2-1.3 2.3 2.9 13.2 3 7.9 4.2 12.2 3.5 12.9-2 2-3.7-.3-7.4-10.5-4.7-12.9-4.9-13.2-7.6-12.3-3.3 1-2.6 4.3 1.5 6.7 3.5 2.1 3.6 2.3 3.1 6.8-.5 4.3-.3 5 3.7 10s4.3 5.7 3.4 8.8c-.5 1.9-.8 3.5-.6 3.6.2.1 2 1.3 4.1 2.5 3.5 2.2 3.7 2.5 3.7 7.7 0 5 .2 5.5 2.7 6.5 3.4 1.3 5 .6 6.5-2.6 1-2.3.8-2.9-2-5.8-3.4-3.5-3.8-5.6-2.1-10.5 1-2.9.8-3.4-2-5.8s-3.1-3.1-3.1-8.7c0-5.7-.3-6.4-3.5-9.7-3.3-3.3-3.5-3.9-2.5-6.5 1.3-3.4.5-7.5-1.3-7.5-.7 0-2.1.6-3 1.2z"/></svg>