<svg xmlns="http://www.w3.org/2000/svg" viewBox="0 0 55.3 31.2"><path fill="#F4F4F4" d="M35.6 3.6h-8.5v8.9h13.4v-2.1l-4.9-6.8zm-1 1.7l3.8 5.3h-9.6V5.3h5.8zM17.7 3.6l-4.9 6.8v2.1h13.4V3.6h-8.5zm-2.9 7.1l3.8-5.3h5.8v5.3h-9.6z"/><path fill="#F4F4F4" d="M0 15.2v8c0 1.2.5 2.7 2.7 2.7h3.6c.2 1.4.9 2.6 1.8 3.6H0v1.8h42.8c3.1 0 5.7-2.3 6.2-5.3h2.7c1.9 0 3.6-1.6 3.6-3.6V16c0-2.7-1.7-4.8-4.3-5.3l-5.4-.9c-.7-.1-1.3-.6-2.1-1.5l-4.4-6.2C37.9.7 36.6 0 34.8 0h-17c-1.8 0-3.1.7-4.3 2.1L9.1 8.4c-.8.9-1.3 1.2-2.2 1.4l-3.6.9C1.8 11 0 12.9 0 15.2zM38.3 25c0-2.5 2-4.5 4.5-4.5s4.5 2 4.5 4.5-2 4.5-4.5 4.5c-2.5-.1-4.5-2.1-4.5-4.5zm-21.5 4.4c1-.9 1.6-2.2 1.8-3.6h18c.2 1.4.9 2.6 1.8 3.6H16.8zM8 25c0-2.5 2-4.5 4.5-4.5s4.5 2 4.5 4.5-2 4.5-4.5 4.5C10 29.4 8 27.4 8 25zm-6.2-1.8v-8c0-1.3 1.2-2.6 1.9-2.7l3.6-.9c1.4-.4 2.3-1.1 3.1-2.1L15 3.2c.8-1 1.6-1.4 2.8-1.4h16.9c1.3 0 2 .4 2.9 1.4L42 9.4c1.1 1.3 2.1 1.9 3.2 2.1l5.4.9c1.3.3 2.8 1.4 2.8 3.6h-1.8c-1.1 0-1.8.6-1.8 1.8v1.8h1.8v-1.8h1.8v4.5c0 1-.8 1.8-1.8 1.8H49c-.4-3-3-5.3-6.2-5.3-3.1 0-5.7 2.3-6.2 5.3h-18c-.4-3-3-5.3-6.2-5.3-3.1 0-5.7 2.3-6.2 5.3H2.7c-.8 0-.9-.2-.9-.9z"/><path fill="#F4F4F4" d="M27.1 14.3h2.7v1.8h-2.7zM40.5 25c0 1.5 1.2 2.7 2.7 2.7 1.5 0 2.7-1.2 2.7-2.7s-1.2-2.7-2.7-2.7c-1.5 0-2.7 1.2-2.7 2.7zm1.7 0c0-.5.4-.9.9-.9s.9.4.9.9-.4.9-.9.9-.9-.4-.9-.9zm-32.1 0c0 1.5 1.2 2.7 2.7 2.7 1.5 0 2.7-1.2 2.7-2.7s-1.2-2.7-2.7-2.7c-1.5 0-2.7 1.2-2.7 2.7zm1.8 0c0-.5.4-.9.9-.9s.9.4.9.9-.4.9-.9.9-.9-.4-.9-.9z"/></svg>