<svg xmlns="http://www.w3.org/2000/svg" viewBox="0 0 30.7 31.3"><g fill="#F4F4F4"><path d="M28.9 31.3c-.1 0-.3 0-.4-.1-.2-.1-3.9-1.4-6-2.3-2.2 1.2-4.7 1.8-7.2 1.8C6.9 30.7 0 23.8 0 15.4 0 6.9 6.9 0 15.4 0s15.4 6.9 15.4 15.4c0 3-.9 5.9-2.5 8.5l1.9 5.9c.1.4 0 .9-.3 1.2-.4.2-.7.3-1 .3zM15.4 2.4c-7.2 0-13 5.8-13 13s5.8 13 13 13c2.3 0 4.5-.6 6.5-1.7.3-.2.7-.2 1-.1 1 .4 2.8 1.1 4.2 1.6L25.8 24c-.1-.4 0-.7.2-1 1.6-2.2 2.4-4.8 2.4-7.6 0-7.2-5.9-13-13-13z"/><path d="M24.5 15.1c-2.2-2.7-5.5-4.2-9-4.2s-6.7 1.5-9 4.2c-.3.4-.3.9.1 1.2.2.1.3.2.5.2s.5-.1.6-.3c1.9-2.3 4.7-3.6 7.7-3.6s5.8 1.3 7.7 3.6c.2.2.4.3.6.3.2 0 .4-.1.5-.2.6-.4.6-.9.3-1.2z"/><path d="M15.5 14.2c-2.5 0-4.8 1.1-6.4 3-.3.4-.3.9.1 1.2.2.1.3.2.5.2s.5-.1.6-.3c1.3-1.5 3.1-2.4 5.1-2.4 2 0 3.8.9 5.1 2.4.2.2.4.3.6.3.2 0 .4-.1.5-.2.4-.3.4-.8.1-1.2-1.4-1.9-3.7-3-6.2-3z"/><path d="M15.5 17.6c-1.5 0-2.9.7-3.8 1.8-.3.4-.3.9.1 1.2.2.1.3.2.5.2s.5-.1.6-.3c.6-.8 1.6-1.2 2.6-1.2s1.9.4 2.6 1.2c.2.2.4.3.6.3.2 0 .4-.1.5-.2.4-.3.4-.8.1-1.2-.9-1.2-2.3-1.8-3.8-1.8z"/><circle cx="15.5" cy="21.4" r="1.1"/></g></svg>