<svg xmlns="http://www.w3.org/2000/svg" viewBox="0 0 71.5 76.6"><g fill="#F4F4F4"><path d="M22.4 28.8v2.1h13.4V22h-8.5l-4.9 6.8zM34 23.7V29h-9.6l3.8-5.3H34zm2.6-1.8v8.9H50v-2.1l-4.9-6.8h-8.5zm1.8 7.1v-5.3h5.8L48 29h-9.6z"/><path d="M59.5 29.1l-3.6-.9c-.9-.2-1.4-.6-2.2-1.4l-4.5-6.3c-1.1-1.5-2.5-2.1-4.3-2.1H28.1c-1.8 0-3.1.7-4.3 2.2l-4.4 6.2c-.8.9-1.4 1.3-2.1 1.5l-5.4.9c-2.6.5-4.3 2.7-4.3 5.3v6.2c0 1.9 1.6 3.6 3.6 3.6h2.7c.4 3 3 5.3 6.2 5.3h42.8v-1.8h-8.1c1-.9 1.6-2.2 1.8-3.6h3.6c2.2 0 2.7-1.5 2.7-2.7v-8c-.1-2.2-1.9-4.2-3.4-4.4zM20.1 47.8c-2.5 0-4.5-2-4.5-4.5s2-4.5 4.5-4.5 4.5 2 4.5 4.5c-.1 2.5-2.1 4.5-4.5 4.5zm4.3 0c1-.9 1.6-2.2 1.8-3.6h18c.2 1.4.9 2.6 1.8 3.6H24.4zm26 0c-2.5 0-4.5-2-4.5-4.5s2-4.5 4.5-4.5 4.5 2 4.5 4.5c-.1 2.5-2.1 4.5-4.5 4.5zm10.7-6.3c0 .8-.1.9-.9.9h-3.6c-.4-3-3-5.3-6.2-5.3-3.1 0-5.7 2.3-6.2 5.3h-18c-.4-3-3-5.3-6.2-5.3-3.1 0-5.7 2.3-6.2 5.3h-2.7c-.9 0-1.8-.8-1.8-1.8v-4.5h1.8V38h1.8v-1.8c0-1.1-.6-1.8-1.8-1.8H9.4c0-2.2 1.5-3.3 2.8-3.6l5.4-.9c1.2-.2 2.1-.9 3.2-2.1l4.4-6.2c.8-1 1.6-1.4 2.9-1.4H45c1.3 0 2 .4 2.8 1.4l4.5 6.3c.9 1 1.7 1.7 3.1 2.1l3.6.9c.8.1 1.9 1.3 1.9 2.7v7.9h.2z"/><path d="M33.1 32.6h2.7v1.8h-2.7zm-13.4 8c-1.5 0-2.7 1.2-2.7 2.7 0 1.5 1.2 2.7 2.7 2.7 1.5 0 2.7-1.2 2.7-2.7 0-1.5-1.2-2.7-2.7-2.7zm0 3.6c-.5 0-.9-.4-.9-.9s.4-.9.9-.9.9.4.9.9-.4.9-.9.9zM50 40.6c-1.5 0-2.7 1.2-2.7 2.7 0 1.5 1.2 2.7 2.7 2.7 1.5 0 2.7-1.2 2.7-2.7 0-1.5-1.2-2.7-2.7-2.7zm0 3.6c-.5 0-.9-.4-.9-.9s.4-.9.9-.9.9.4.9.9-.4.9-.9.9z"/><path d="M62.1 76.6c-.3 0-.6-.1-.9-.2l-13.5-7c-3.8 1.4-7.9 2.1-12 2.1C16 71.5 0 55.5 0 35.7 0 16 16 0 35.7 0c19.7 0 35.7 16 35.7 35.7 0 9.5-3.6 18.3-10.2 25L64 74.3c.1.7-.1 1.5-.7 1.9-.4.3-.8.4-1.2.4zM47.9 65.4c.3 0 .6.1.9.2l10.7 5.5-2.1-10.5c-.2-.7 0-1.4.5-1.9 6.3-6.1 9.8-14.3 9.8-23 0-17.6-14.3-31.9-31.9-31.9-17.6 0-32 14.4-32 31.9 0 17.6 14.3 31.9 31.9 31.9 3.9 0 7.8-.7 11.4-2.1.3-.1.5-.1.8-.1z"/></g></svg>