<svg xmlns="http://www.w3.org/2000/svg" viewBox="0 0 391.9 106.1"><radialGradient id="a" cx="83.325" cy="-71.151" r="123.979" gradientTransform="matrix(.5538 0 0 .04348 50.782 104.665)" gradientUnits="userSpaceOnUse"><stop offset=".103" stop-color="#e0e2df"/><stop offset=".354" stop-color="#edeeec" stop-opacity=".72"/><stop offset=".721" stop-color="#fafafa" stop-opacity=".311"/><stop offset="1" stop-color="#fff" stop-opacity="0"/></radialGradient><path opacity=".9" fill="url(#a)" d="M0 101.6C0 99.1 43.4 97 96.9 97c53.5 0 96.9 2 96.9 4.5s-43.4 4.5-96.9 4.5c-53.5.1-96.9-1.9-96.9-4.4z"/><path fill="none" d="M71.5 37.7c-13.9 0-25.2 11.3-25.2 25.2 0 6.9 2.8 13.4 7.8 18.2.5.5.7 1.2.5 1.8L53 90.6l7.9-4.1c.5-.2 1-.3 1.5-.1 2.9 1.1 5.9 1.7 9 1.7 13.9 0 25.2-11.3 25.2-25.2.1-13.9-11.2-25.2-25.1-25.2z"/><path fill="#C5351F" d="M96.7 64.6c-.9 13.1-11.8 23.5-25.1 23.5-3.1 0-6.2-.6-9-1.7-.5-.2-1.1-.2-1.5.1L53 90.6l1.6-7.7c.2-.6 0-1.3-.5-1.8-5-4.8-7.8-11.3-7.8-18.2 0-13.9 11.3-25.2 25.2-25.2 3.3 0 6.4.6 9.3 1.8-.3-1.3-.4-2.7-.2-4.1-2.9-1-5.9-1.5-9.1-1.5-16 0-28.9 13-28.9 29 0 7.6 2.9 14.7 8.2 20.2l-2.2 10.6c-.1.7.1 1.4.7 1.9.3.3.7.4 1.1.4.3 0 .6-.1.9-.2L62 90.3c3.1 1.1 6.3 1.6 9.6 1.6 14.9 0 27.2-11.3 28.8-25.7-1.4-.5-2.6-1-3.7-1.6z"/><path fill="#C5351F" d="M92.3 61c-3.4-2.4-5.3-5.4-6.8-9.2-.7-.7-1.4-1.6-2-2.5-1.3-1.9-1.7-4.3-1.6-6.6-.6-1.3-1-2.6-1.2-4l-10.9-3-10 3.6-5.9 3.6-5.3 4L45 67.2l6.9 15-.6 6.9v.5l-.6 3.6 8.6-4.5 7 1.6L77 89l11-5.3 6.7-7.6L97 64.9c-.7-.3-1.4-.7-2-1.1-1-.8-2-1.7-2.7-2.8z"/><path fill="#FFF" d="M72.2 46c-.4-.9-1-1.6-2-2-2.7-1.2-6.6.4-6.8.4s-4.2 1.5-5.4 4.2c-.3.6-.4 1.3-.3 1.9 0 .1.1.3.1.4 0 .1 0 .1.1.2.1.2.2.5.3.7.1.2.1.4.2.6 1 2.6 3.4 8.6 6.4 10 .3.1.5.2.8.3l1 2.6c.1.2.2.3.4.2l1.5.7-.3 2.9c-.1.3 0 .4.1.6l2.8 3.4-.5 2.3c-.1.4 0 .7.3.9l2.9 1.8-.1 3.7c0 .3.2.7.5.8l3.7 1.1h.5c.1-.1.3-.2.5-.2l2-3.2c.1-.3.1-.7-.1-.9l-2.5-2.7 1-3.3c0-.3-.1-.6-.3-.9L77 71l-.2-4.4c-.1-.2-.2-.4-.3-.5l-2.1-2 .7-1.5c.1-.2.1-.4 0-.6l-1-2.6c.1-.2.3-.5.4-.7 1.6-3.6-1.8-11.8-2.3-12.7zm1.4 16.3l-.8 1.7c-.1.4-.1.7.2.9l2.3 2.1.2 4.5c0 .2.1.5.3.6l1.8 1.3-.9 3.1c-.1.3 0 .6.2.7l2.4 2.6-1.4 2.3-2.6-.7v-3.5c0-.3-.1-.5-.3-.7l-2.8-1.7.6-2.2c.1-.3 0-.5-.2-.7L69.7 69l.3-3c0-.3-.2-.7-.5-.8l-1.7-.8-.7-1.9 2.1-.8 3.2 8.6c.2.4.6.6 1 .4.4-.2.6-.6.4-1l-3.2-8.6 2.2-.8.8 2zm-.5-4.2c-.2.4-.5.7-.8.8l-5.7 2.2c-.4.1-.8.1-1.2 0-2.5-1.3-5.1-7.8-6-10.2-.2-.6-.2-1.2.1-1.7.8-1.7 3.4-2.9 4.5-3.3 0 0 .1 0 .1-.1.9-.4 3.9-1.2 5.6-.5.5.2.9.6 1.1 1.2 1.1 2.3 3.4 9 2.3 11.6z"/><path fill="#FFF" d="M66.8 47.2l-3.9 1.5c-.9.4-1.4 1.3-1 2.2l.4 1.1c.3.9 1.3 1.3 2.2.9l3.9-1.5c.9-.3 1.3-1.3.9-2.2l-.3-1c-.3-.9-1.3-1.3-2.2-1zm1.2 2.7c0 .1 0 .2-.1.2L64 51.5c-.1.1-.2 0-.3-.1l-.4-1.1c0-.1 0-.2.2-.2l3.9-1.5c.1 0 .2 0 .2.1l.4 1.2z"/><path fill="#454341" d="M100.3 28.8v2.1h13.4V22h-8.5l-4.9 6.8zm11.6-5.1V29h-9.6l3.8-5.3h5.8zm2.6-1.8v8.9h13.4v-2.1l-4.9-6.8h-8.5zm1.8 7.1v-5.3h5.8l3.8 5.3h-9.6z"/><path fill="#454341" d="M137.4 29.1l-3.6-.9c-.9-.2-1.4-.6-2.2-1.4l-4.5-6.3c-1.1-1.5-2.5-2.1-4.3-2.1H106c-1.8 0-3.1.7-4.3 2.2l-4.4 6.2c-.8.9-1.4 1.3-2.1 1.5l-5.4.9c-2.6.5-4.3 2.7-4.3 5.3v6.2c0 1.9 1.6 3.6 3.6 3.6h2.7c.4 3 3 5.3 6.2 5.3h42.8v-1.8h-8.1c1-.9 1.6-2.2 1.8-3.6h3.6c2.2 0 2.7-1.5 2.7-2.7v-8c-.1-2.2-1.9-4.2-3.4-4.4zM97.9 47.8c-2.5 0-4.5-2-4.5-4.5s2-4.5 4.5-4.5 4.5 2 4.5 4.5-2 4.5-4.5 4.5zm4.4 0c1-.9 1.6-2.2 1.8-3.6h18c.2 1.4.9 2.6 1.8 3.6h-21.6zm25.9 0c-2.5 0-4.5-2-4.5-4.5s2-4.5 4.5-4.5 4.5 2 4.5 4.5-2 4.5-4.5 4.5zm10.7-6.3c0 .8-.1.9-.9.9h-3.6c-.4-3-3-5.3-6.2-5.3-3.1 0-5.7 2.3-6.2 5.3h-18c-.4-3-3-5.3-6.2-5.3-3.1 0-5.7 2.3-6.2 5.3H89c-.9 0-1.8-.8-1.8-1.8v-4.5H89V38h1.8v-1.8c0-1.1-.6-1.8-1.8-1.8h-1.8c0-2.2 1.5-3.3 2.8-3.6l5.4-.9c1.2-.2 2.1-.9 3.2-2.1l4.4-6.2c.8-1 1.6-1.4 2.9-1.4h16.9c1.3 0 2 .4 2.8 1.4l4.5 6.3c.9 1 1.7 1.7 3.1 2.1l3.6.9c.8.1 1.9 1.3 1.9 2.7v7.9h.2z"/><path fill="#454341" d="M111 32.6h2.7v1.8H111zm-13.4 8c-1.5 0-2.7 1.2-2.7 2.7 0 1.5 1.2 2.7 2.7 2.7 1.5 0 2.7-1.2 2.7-2.7 0-1.5-1.2-2.7-2.7-2.7zm0 3.6c-.5 0-.9-.4-.9-.9s.4-.9.9-.9.9.4.9.9-.4.9-.9.9zm30.3-3.6c-1.5 0-2.7 1.2-2.7 2.7 0 1.5 1.2 2.7 2.7 2.7 1.5 0 2.7-1.2 2.7-2.7 0-1.5-1.2-2.7-2.7-2.7zm0 3.6c-.5 0-.9-.4-.9-.9s.4-.9.9-.9.9.4.9.9-.4.9-.9.9zm45.3-4.3l.6-.5c.8-.5 1.4-.7 1.7-.7.7 0 1.5.7 2.4 2 .5.8.8 1.5.8 2s-.2.9-.5 1.2c-.3.3-.7.6-1.1.9-.4.3-.8.5-1.2.7-.4.2-1.2.5-2.4.9s-2.3.6-3.5.6c-1.1 0-2.2-.1-3.4-.4-1.1-.3-2.3-.8-3.5-1.5-1.2-.7-2.3-1.5-3.3-2.5s-1.8-2.3-2.4-3.8c-.6-1.6-.9-3.3-.9-5.1 0-1.8.3-3.5.9-5 .6-1.5 1.4-2.7 2.3-3.7.9-1 2-1.8 3.3-2.4 2.3-1.3 4.6-1.9 6.9-1.9 1.1 0 2.2.2 3.4.5 1.1.3 2 .7 2.6 1l.8.5c.4.3.7.5 1 .6.6.5.9 1 .9 1.7 0 .6-.2 1.3-.7 2-.9 1.3-1.7 1.9-2.5 1.9-.4 0-1-.3-1.8-.8-1-.8-2.3-1.2-3.9-1.2-1.5 0-3 .5-4.5 1.6-.7.5-1.3 1.2-1.8 2.2-.5.9-.7 2-.7 3.2 0 1.2.2 2.2.7 3.2.5.9 1.1 1.7 1.8 2.2 1.4 1 2.9 1.5 4.5 1.5.7 0 1.4-.1 2.1-.3.6-.2 1.1-.4 1.4-.6zm7.7-17.4c0-.5 0-.9.1-1.2 0-.3.1-.6.3-.9.3-.6 1.2-.9 2.7-.9 1.4 0 2.3.3 2.7.9.2.4.3.7.3.9 0 .3.1.7.1 1.2v16.3c0 .8.1 1.4.2 1.6.1.2.5.3.9.3.5 0 .8 0 1 .1.2 0 .4.1.6.3.5.3.7 1.1.7 2.5 0 1.5-.2 2.4-.7 2.7-.6.4-2.1.5-4.4.2-1.8-.2-3-.8-3.5-1.8-.7-1.1-1-3-1-5.5V22.5zm29 12.7c0 1.4-.4 2.5-1.1 3.2-.7.7-1.5 1-2.4 1h-8.3c0 .7.4 1.2 1.2 1.7.8.4 1.5.7 2.3.7 1.4 0 2.4-.1 3.2-.4l.4-.1c.6-.3 1-.4 1.4-.4.7 0 1.4.5 1.9 1.6.3.6.5 1.2.5 1.6 0 2.1-2.5 3.1-7.5 3.1-1.7 0-3.3-.3-4.6-.9-1.3-.6-2.4-1.4-3.1-2.4-1.5-1.9-2.2-4-2.2-6.4 0-3 1-5.3 2.9-7.1 1.9-1.8 4.3-2.7 7.2-2.7 3.3 0 5.6 1.1 7.2 3.4.6 1.3 1 2.6 1 4.1zm-7.4 1c.9 0 1.3-.4 1.3-1.1 0-.5-.2-1-.6-1.3-.4-.3-1-.5-1.8-.5s-1.5.3-2.3.9c-.8.6-1.1 1.3-1.1 2h4.5zm20.2-8.1c1.6 0 2.6.4 2.8 1.3.1.4.2 1 .2 1.8 0 .7-.1 1.3-.2 1.7-.2.4-.4.7-.7.9-.5.3-1.2.4-2.1.4l-2.3-.1v9.4c0 .9-.1 1.6-.3 2-.2.4-.6.7-1 .9-.5.1-1 .2-1.8.2-.7 0-1.3-.1-1.7-.2-.4-.2-.7-.4-.9-.7-.2-.3-.3-.6-.3-.9 0-.3-.1-.7-.1-1.2v-9.3H213c-.6 0-1-.2-1.3-.4-.4-.4-.7-1.3-.7-2.6 0-1.9.7-2.9 2.1-2.9h1.2v-1.9c0-1.8.6-3.4 1.9-4.9 1.3-1.5 3.2-2.2 5.6-2.2.5 0 .9 0 1.2.1.3 0 .6.1.9.3.6.3.9 1.2.9 2.7 0 1.1-.2 1.9-.6 2.4-.3.4-.8.6-1.5.6h-1c-.9 0-1.3.3-1.3.9v1.9l2.3-.2zM238 41.7h-8.4c-1.3 0-2.1-.4-2.4-1.2-.1-.4-.2-1-.2-1.6 0-.7.1-1.2.2-1.6.1-.4.4-.7.7-.8.4-.2 1-.3 1.7-.3h8.4c1.3 0 2.1.4 2.3 1.2.1.4.2 1 .2 1.6 0 .7-.1 1.2-.2 1.6-.1.4-.3.7-.6.9-.3.1-.9.2-1.7.2zm28.4-20.4c1.4.7 2.1 1.4 2.1 2.2 0 .4-.2.9-.5 1.7l-9.7 19.7c-.3.5-.7.9-1.2 1.2-.5.3-1.1.5-1.6.5h-.4c-.6 0-1.1-.2-1.7-.5-.5-.3-.9-.7-1.2-1.2l-9.7-19.7c-.4-.7-.5-1.3-.5-1.7 0-.8.7-1.6 2.1-2.2.8-.4 1.4-.6 1.8-.6.4 0 .7 0 .9.1.2.1.4.3.6.5l.6.9c.2.3.6 1.3 1.4 2.9.7 1.6 1.5 3.3 2.3 5.1.8 1.8 1.6 3.5 2.4 5.1.7 1.6 1.2 2.5 1.2 2.7l7-15.4c.2-.4.4-.8.5-1.1.4-.6.9-.9 1.5-.9s1.3.3 2.1.7zm2.9 9.1c2-1.8 4.2-2.7 6.7-2.7s4.8.9 6.7 2.7c1.9 1.8 2.9 4.1 2.9 6.9 0 1.9-.5 3.7-1.5 5.2s-2.2 2.6-3.7 3.3c-1.4.7-2.9 1.1-4.5 1.1-1.5 0-3-.4-4.5-1.1-1.5-.8-2.7-1.9-3.7-3.4s-1.5-3.2-1.5-5c.2-2.8 1.2-5.1 3.1-7zm4.4 9.5c.7.6 1.5.9 2.3.9.8 0 1.5-.3 2.3-.9.8-.6 1.2-1.5 1.2-2.6s-.4-2-1.1-2.6c-.7-.6-1.5-.8-2.4-.8-.8 0-1.6.3-2.4.9-.7.6-1.1 1.4-1.1 2.6.1 1.1.5 1.9 1.2 2.5zm20.1-15.2c-.2.3-.5.6-.9.7-.4.1-1 .2-1.8.2-.7 0-1.3-.1-1.8-.2-.4-.1-.8-.4-.9-.7-.2-.4-.3-.7-.3-.9 0-.3-.1-.7-.1-1.2s0-.9.1-1.2c0-.3.1-.6.3-.9.3-.6 1.2-.9 2.7-.9 1.5 0 2.4.3 2.7.9.2.4.3.7.3.9 0 .3.1.7.1 1.2s0 .9-.1 1.2c-.1.2-.2.5-.3.9zm-5.8 6.5c0-.5 0-.9.1-1.2 0-.3.1-.6.3-.9.3-.6 1.2-.9 2.7-.9 1.1 0 1.9.2 2.4.6.4.3.6.8.6 1.5v13.3c0 .5 0 .9-.1 1.2 0 .3-.1.6-.3.9-.3.6-1.2.9-2.7.9-1.5 0-2.4-.3-2.7-.9-.2-.4-.3-.7-.3-.9 0-.3-.1-.7-.1-1.2V31.2zm19.7 3.1l-2.3-.1V39c0 .6.1 1.1.3 1.4.2.3.6.4 1.1.4s1 0 1.3.1c.3 0 .6.1.9.3.5.3.8 1.1.8 2.4 0 1.5-.3 2.4-1 2.7-.4.2-.7.3-.9.3-.3 0-.7.1-1.2.1-2.4 0-4.3-.6-5.6-1.7-1.3-1.1-1.9-3-1.9-5.6v-5.2c-.4.1-.9.1-1.4.1-.5 0-.9-.2-1.3-.6-.3-.4-.5-1.1-.5-2 0-1 .1-1.7.2-2.1.1-.4.3-.7.5-.9.4-.3.8-.5 1.4-.5l1.2.1v-3.6c0-.5 0-.9.1-1.2 0-.3.1-.5.3-.8.3-.6 1.2-.9 2.7-.9 1.6 0 2.5.4 2.8 1.3.1.4.2 1 .2 1.8v3.4c1-.1 1.8-.1 2.3-.1.5 0 .9 0 1.2.1.3 0 .6.1.9.3.6.3.9 1.2.9 2.7 0 1.5-.3 2.4-.9 2.7-.4.2-.7.3-.9.3h-1.2zM321 46.6c-2.4 0-4.3-.9-5.9-2.7-1.6-1.8-2.3-4-2.3-6.6v-6.2c0-.6 0-1 .1-1.2 0-.3.1-.6.3-.9.3-.6 1.2-.9 2.7-.9 1.6 0 2.6.4 2.9 1.3.1.4.2 1 .2 1.8v6.2c0 1 .3 1.7.8 2.2.5.5 1.3.8 2.2.8.9 0 1.7-.3 2.3-.8.6-.6.9-1.3.9-2.2v-6.2c0-.5 0-.9.1-1.2 0-.3.1-.6.3-.9.3-.6 1.2-.9 2.7-.9 1.5 0 2.4.3 2.7.9.2.4.3.7.3.9 0 .3.1.7.1 1.2v12.4c0 .5 0 .9-.1 1.2 0 .3-.1.6-.3.9-.4.6-1.3.9-2.7.9-1.4 0-2.3-.3-2.6-.8-.2-.4-.4-.9-.4-1.4-.1.2-.3.4-.6.7-.3.3-.6.6-.9.8-1 .4-1.9.7-2.8.7zm25.6-18.3c.4.1.8.4 1.1.7.3.3.4.9.4 1.6 0 .8-.2 1.6-.7 2.5-.4.9-1.1 1.3-1.9 1.3-.4 0-.8-.1-1.2-.3-.4-.2-.9-.3-1.5-.3s-1.2.2-1.8.7c-.6.4-.8 1-.8 1.6v7.4c0 .5 0 .9-.1 1.2 0 .3-.1.6-.3.9-.4.6-1.3.9-2.7.9-1.1 0-1.9-.2-2.4-.6-.4-.3-.6-.8-.6-1.5V31.2c0-.5 0-.9.1-1.2 0-.3.1-.6.3-.9.3-.6 1.2-.9 2.7-.9 1.4 0 2.3.3 2.6.8.3.4.4.8.4 1.2.1-.2.3-.4.5-.6.2-.2.7-.6 1.4-.9.7-.4 1.4-.6 1.9-.6.6 0 1 0 1.4.1.4-.1.8 0 1.2.1zm20.3 6.9c0 1.4-.4 2.5-1.1 3.2-.7.7-1.5 1-2.4 1h-8.3c0 .7.4 1.2 1.2 1.7.8.4 1.5.7 2.3.7 1.4 0 2.4-.1 3.2-.4l.4-.1c.6-.3 1-.4 1.4-.4.7 0 1.4.5 1.9 1.6.3.6.5 1.2.5 1.6 0 2.1-2.5 3.1-7.5 3.1-1.7 0-3.3-.3-4.6-.9-1.3-.6-2.4-1.4-3.1-2.4-1.5-1.9-2.2-4-2.2-6.4 0-3 1-5.3 2.9-7.1 1.9-1.8 4.3-2.7 7.2-2.7 3.3 0 5.6 1.1 7.2 3.4.6 1.3 1 2.6 1 4.1zm-7.4 1c.9 0 1.3-.4 1.3-1.1 0-.5-.2-1-.6-1.3-.4-.3-1-.5-1.8-.5s-1.5.3-2.3.9c-.8.6-1.1 1.3-1.1 2h4.5z"/><path d="M158.9 53.3H178c.7 0 1.3.1 1.6.3.3.2.6.4.7.8.1.4.2.8.2 1.4 0 .6-.1 1.1-.2 1.4-.1.4-.3.6-.6.7-.4.2-1 .3-1.8.3h-6.6v17.3c0 .5 0 .9-.1 1.2 0 .3-.1.5-.3.9-.2.3-.5.6-.9.7-.4.1-1 .2-1.7.2s-1.3-.1-1.7-.2c-.4-.1-.7-.4-.9-.7-.2-.3-.3-.6-.3-.9 0-.3-.1-.7-.1-1.2V58.3h-6.6c-.7 0-1.3-.1-1.6-.3-.3-.2-.6-.4-.7-.8-.1-.4-.2-.8-.2-1.4 0-.6.1-1.1.2-1.4.1-.4.3-.6.6-.7.5-.3 1.1-.4 1.9-.4zm36.6-.3c3.4 0 6.3 1.2 8.8 3.7 2.5 2.4 3.7 5.5 3.7 9.1 0 3.6-1.2 6.7-3.6 9.3-2.4 2.6-5.3 3.8-8.8 3.8-3.5 0-6.4-1.3-8.9-3.8-2.4-2.5-3.7-5.5-3.7-9 0-1.9.3-3.7 1-5.3.7-1.7 1.6-3 2.7-4.2 1.1-1.1 2.5-2 3.9-2.6 1.8-.7 3.3-1 4.9-1zm-6.2 13c0 2 .7 3.7 2 5 1.3 1.3 2.8 1.9 4.4 1.9 1.6 0 3.1-.6 4.4-1.9 1.3-1.2 2-2.9 2-5s-.7-3.8-2-5c-1.3-1.3-2.8-1.9-4.4-1.9s-3.1.6-4.4 1.9c-1.4 1.3-2 2.9-2 5zm40.9-11.8c.2-.4.6-.6 1-.8.4-.1 1-.2 1.6-.2.7 0 1.2.1 1.6.2.4.1.7.3.9.4.2.2.4.4.4.7.1.4.2 1 .2 1.8v10.4c0 3-.9 5.8-2.8 8.2-.9 1.2-2.1 2.1-3.5 2.8-1.4.7-3 1.1-4.8 1.1-1.8 0-3.3-.4-4.8-1.1-1.4-.7-2.6-1.7-3.5-2.9-1.9-2.4-2.8-5.2-2.8-8.2V56.3c0-.5 0-1 .1-1.2 0-.3.1-.6.3-.9.2-.3.5-.6.9-.7.4-.1 1-.2 1.8-.2.7 0 1.3.1 1.8.2.4.1.7.4.9.7.3.5.4 1.2.4 2.2v10.3c0 1.4.3 2.7 1 4 .3.6.9 1.2 1.5 1.5.7.4 1.5.6 2.4.6 1.7 0 2.9-.6 3.7-1.9.8-1.2 1.2-2.7 1.2-4.3V56.1c.1-.9.2-1.5.5-1.9zm18 19.2h9.3c.8 0 1.3.1 1.6.3.3.2.6.4.7.8.1.4.2.9.2 1.5s-.1 1.1-.2 1.5c-.1.4-.3.6-.6.8-.4.2-1 .3-1.8.3H245c-1.6 0-2.5-.4-2.8-1.3-.1-.4-.2-.9-.2-1.8V56.4c0-.5 0-.9.1-1.2 0-.3.1-.6.3-.9.3-.6 1.2-.9 2.7-.9 1.6 0 2.6.4 2.9 1.3.1.4.2 1 .2 1.8v16.9zM277.5 53c3.4 0 6.3 1.2 8.8 3.7 2.5 2.4 3.7 5.5 3.7 9.1 0 3.6-1.2 6.7-3.6 9.3-2.4 2.6-5.3 3.8-8.8 3.8-3.5 0-6.4-1.3-8.9-3.8s-3.7-5.5-3.7-9c0-1.9.3-3.7 1-5.3.7-1.7 1.6-3 2.7-4.2 1.1-1.1 2.5-2 3.9-2.6 1.8-.7 3.3-1 4.9-1zm-6.3 12.9c0 2 .7 3.7 2 5 1.3 1.3 2.8 1.9 4.4 1.9 1.6 0 3.1-.6 4.4-1.9 1.3-1.2 2-2.9 2-5s-.7-3.8-2-5c-1.3-1.3-2.8-1.9-4.4-1.9s-3.1.6-4.4 1.9c-1.3 1.3-2 3-2 5zm40.9-11.7c.2-.4.6-.6 1-.8.4-.1 1-.2 1.6-.2.7 0 1.2.1 1.6.2.4.1.7.3.9.4.2.2.4.4.4.7.1.4.2 1 .2 1.8v10.4c0 3-.9 5.8-2.8 8.2-.9 1.2-2.1 2.1-3.5 2.8-1.4.7-3 1.1-4.8 1.1-1.8 0-3.3-.4-4.8-1.1-1.4-.7-2.6-1.7-3.5-2.9-1.9-2.4-2.8-5.2-2.8-8.2V56.3c0-.5 0-1 .1-1.2 0-.3.1-.6.3-.9.2-.3.5-.6.9-.7.4-.1 1-.2 1.8-.2s1.3.1 1.8.2c.4.1.7.4.9.7.3.5.4 1.2.4 2.2v10.3c0 1.4.3 2.7 1 4 .3.6.9 1.2 1.5 1.5.7.4 1.5.6 2.4.6 1.7 0 2.9-.6 3.7-1.9.8-1.2 1.2-2.7 1.2-4.3V56.1c.2-.9.3-1.5.5-1.9zm11.3 20.7c-.6-.7-.9-1.4-.9-2s.5-1.4 1.5-2.3c.6-.5 1.2-.8 1.8-.8s1.5.6 2.7 1.7c.3.4.8.8 1.4 1.1.6.4 1.1.5 1.6.5 2.1 0 3.2-.9 3.2-2.6 0-.5-.3-1-.9-1.3-.6-.4-1.3-.6-2.2-.8-.9-.2-1.8-.4-2.8-.8-1-.4-1.9-.8-2.8-1.3-.9-.5-1.6-1.2-2.2-2.3-.6-1-.9-2.3-.9-3.8 0-2 .7-3.8 2.2-5.3 1.5-1.5 3.5-2.2 6.1-2.3 1.4 0 2.6.2 3.8.5 1.1.4 1.9.7 2.4 1.1l.9.7c.7.7 1.1 1.2 1.1 1.7s-.3 1.1-.8 1.9c-.8 1.1-1.6 1.7-2.4 1.7-.5 0-1.1-.2-1.8-.7-.1 0-.2-.2-.4-.3-.2-.2-.4-.3-.5-.4-.5-.3-1.1-.4-1.8-.4s-1.4.2-1.9.5c-.5.4-.7.8-.7 1.5 0 .6.3 1.1.9 1.5.6.4 1.3.7 2.2.8.9.1 1.8.3 2.8.6 1 .3 2 .6 2.8 1 .9.4 1.6 1.1 2.2 2.1.6 1 .9 2.3.9 3.8s-.3 2.8-.9 3.9c-.6 1.1-1.4 2-2.3 2.6-1.9 1.2-3.8 1.8-5.9 1.8-1.1 0-2.1-.1-3.1-.4-1-.3-1.7-.6-2.3-1-1.2-.7-2.1-1.4-2.5-2.1l-.5-.1zm29.1-2.5h10.6c.5 0 .9 0 1.2.1.3 0 .6.1.9.3.6.3.9 1.2.9 2.7 0 1.6-.4 2.5-1.3 2.8-.4.1-1 .2-1.8.2h-13.6c-1.6 0-2.5-.4-2.8-1.3-.1-.4-.2-.9-.2-1.8V56.3c0-1.2.2-2 .7-2.4.4-.4 1.3-.6 2.5-.6h13.5c.5 0 .9 0 1.2.1.3 0 .6.1.9.3.6.3.9 1.2.9 2.7 0 1.6-.4 2.5-1.3 2.8-.4.1-1 .2-1.8.2h-10.5v3.5h6.8c.5 0 .9 0 1.2.1.3 0 .6.1.9.3.6.3.9 1.2.9 2.7 0 1.6-.4 2.5-1.3 2.8-.4.1-1 .2-1.8.2h-6.7v3.4z" fill="#C5351F"/><path d="M169 93.1c.1.2.1.3.1.4 0 .2-.1.3-.4.4-.1.1-.3.1-.4.1s-.2 0-.2-.1c-.1 0-.1-.1-.1-.1 0-.1-.2-.5-.5-1.3h-1.1v1c0 .1 0 .1-.1.2s-.2.2-.5.2-.5-.1-.6-.3v-4.5c0-.1 0-.1.1-.2s.2-.2.5-.2h1.5c.4 0 .8.1 1.2.4.2.1.3.3.5.6.1.2.2.5.2.8 0 .5-.2 1-.5 1.3 0 .5.1.8.3 1.3zm-2.7-1.8h.9c.1 0 .3-.1.4-.2.1-.1.2-.3.2-.5s-.1-.4-.2-.5c-.1-.1-.3-.2-.4-.2h-.9v1.4zm7.4 1.5h2.4c.1 0 .1 0 .2.1s.2.2.2.5-.1.5-.3.6H173c-.3 0-.5-.1-.6-.3v-4.3c0-.2 0-.4.1-.5.1-.1.3-.1.5-.1h3c.1 0 .1 0 .2.1s.2.2.2.5-.1.5-.3.6h-2.5v.7h1.6c.1 0 .1 0 .2.1s.2.2.2.5-.1.5-.3.6h-1.8v.9zm9.9-2.9c.1.2.2.5.2.8 0 .3-.1.6-.2.8-.1.2-.3.4-.5.6-.4.3-.8.4-1.2.4h-.9v1c0 .1 0 .1-.1.2s-.2.2-.5.2-.5-.1-.6-.3v-4.5c0-.1 0-.1.1-.2s.2-.2.5-.2h1.5c.4 0 .8.1 1.2.4.3.4.4.6.5.8zm-1.2 1.3c.1-.1.2-.3.2-.5s-.1-.4-.2-.5c-.1-.1-.3-.2-.4-.2h-.9v1.2h.9c.1.1.2.1.4 0zm8.7 1.9c.1.2.1.3.1.4 0 .2-.1.3-.4.4-.1.1-.3.1-.4.1-.1 0-.2 0-.2-.1-.1 0-.1-.1-.1-.1 0-.1-.2-.5-.5-1.3h-1.1v1c0 .1 0 .1-.1.2s-.2.2-.5.2-.5-.1-.6-.3v-4.5c0-.1 0-.1.1-.2s.2-.2.5-.2h1.5c.4 0 .8.1 1.2.4.2.1.3.3.5.6.1.2.2.5.2.8 0 .5-.2 1-.5 1.3 0 .5.1.8.3 1.3zm-2.7-1.8h.9c.1 0 .3-.1.4-.2.1-.1.2-.3.2-.5s-.1-.4-.2-.5c-.1-.1-.3-.2-.4-.2h-.9v1.4zm8.5-2.5c.7 0 1.3.3 1.8.7.5.5.8 1.1.8 1.9 0 .7-.2 1.4-.7 1.9-.5.5-1.1.8-1.8.8s-1.3-.3-1.8-.8-.7-1.1-.7-1.8c0-.4.1-.7.2-1.1.1-.3.3-.6.6-.8.2-.2.5-.4.8-.5.2-.2.5-.3.8-.3zm-1.3 2.6c0 .4.1.8.4 1 .3.3.6.4.9.4s.6-.1.9-.4c.3-.3.4-.6.4-1s-.1-.8-.4-1c-.3-.3-.6-.4-.9-.4-.3 0-.6.1-.9.4-.3.3-.4.6-.4 1zm7.9-2.5h1.3c.7 0 1.3.2 1.8.7.5.5.8 1.1.8 1.8s-.3 1.3-.8 1.8-1.1.8-1.8.8h-1.3c-.3 0-.5-.1-.5-.2-.1-.1-.1-.2-.1-.4v-4.1c0-.1 0-.1.1-.2 0-.2.2-.2.5-.2zm2.2 3.5c.3-.2.4-.6.4-.9 0-.4-.1-.7-.4-.9-.3-.3-.6-.4-.9-.4h-.7v2.6h.7c.3 0 .6-.2.9-.4zm8.3-3.3c0-.1.1-.1.2-.2h.6c.1 0 .1.1.2.1l.1.1v2.5c0 .6-.2 1.2-.6 1.7-.2.2-.4.4-.7.6-.3.1-.6.2-1 .2s-.7-.1-1-.2c-.3-.1-.5-.3-.7-.6-.4-.5-.6-1.1-.6-1.7v-2.3c0-.1 0-.1.1-.2 0-.1.1-.1.2-.1h.8c.1 0 .1.1.2.1.1.1.1.3.1.4v2.1c0 .3.1.6.2.8l.3.3c.1.1.3.1.5.1.3 0 .6-.1.8-.4.2-.3.3-.5.3-.9v-2.4zm7.9 3.6l.1-.1c.2-.1.3-.1.3-.1.1 0 .3.1.5.4.1.2.2.3.2.4 0 .1 0 .2-.1.2l-.2.2c-.1.1-.2.1-.2.1-.1 0-.2.1-.5.2-.2.1-.5.1-.7.1-.2 0-.4 0-.7-.1-.2-.1-.5-.2-.7-.3-.2-.1-.5-.3-.6-.5-.2-.2-.3-.5-.5-.8-.1-.3-.2-.6-.2-1s.1-.7.2-1c.1-.3.3-.5.5-.7.2-.2.4-.4.6-.5.5-.3.9-.4 1.4-.4.2 0 .4 0 .7.1.2.1.4.1.5.2l.2.1c.1.1.1.1.2.1.1.1.2.2.2.3 0 .1 0 .3-.1.4-.2.3-.3.4-.5.4-.1 0-.2-.1-.4-.2-.2-.2-.5-.2-.8-.2-.3 0-.6.1-.9.3-.1.1-.3.2-.3.4-.1.2-.1.4-.1.6 0 .2 0 .4.1.6.1.2.2.3.4.4.3.2.6.3.9.3.1 0 .3 0 .4-.1 0 .2 0 .2.1.2zm4.8-3.8h3.9c.1 0 .3 0 .3.1.1 0 .1.1.1.2v.6c0 .1-.1.1-.1.2-.1 0-.2.1-.4.1h-1.3v3.7c0 .1 0 .1-.1.2 0 .1-.1.1-.2.1h-.6c-.1 0-.1-.1-.2-.1 0-.1-.1-.1-.1-.2v-3.7h-1.3c-.1 0-.3 0-.3-.1-.1 0-.1-.1-.1-.2v-.6c0-.1.1-.1.1-.2s.2-.1.3-.1zm7.7.6v-.2c0-.1 0-.1.1-.2s.2-.2.5-.2.5.1.6.3v4.5c0 .1 0 .1-.1.2s-.2.2-.5.2-.5-.1-.6-.3v-4.3zm7.2-.7c.7 0 1.3.3 1.8.7.5.5.8 1.1.8 1.9 0 .7-.2 1.4-.7 1.9-.5.5-1.1.8-1.8.8s-1.3-.3-1.8-.8-.7-1.1-.7-1.8c0-.4.1-.7.2-1.1.1-.3.3-.6.6-.8.2-.2.5-.4.8-.5.1-.2.4-.3.8-.3zm-1.3 2.6c0 .4.1.8.4 1 .3.3.6.4.9.4.3 0 .6-.1.9-.4.3-.3.4-.6.4-1s-.1-.8-.4-1c-.3-.3-.6-.4-.9-.4s-.6.1-.9.4c-.3.3-.4.6-.4 1zm10.5-2.3c0-.1.1-.1.2-.2h.6c.1 0 .1.1.2.1l.1.1v4.5c0 .1 0 .1-.1.2s-.2.2-.5.2h-.4c-.1 0-.1-.1-.2-.1-1-1.4-1.7-2.3-2.1-2.7v2.5c0 .1 0 .1-.1.2s-.2.2-.5.2-.5-.1-.5-.2-.1-.1-.1-.2v-4.1c0-.2 0-.3.1-.4 0-.1.1-.1.2-.2h.6c.1 0 .1.1.2.1l.2.2c1 1.3 1.6 2.2 2 2.6v-2.4c.1-.2.1-.3.1-.4zm12.6 3.6l.1-.1c.2-.1.3-.1.3-.1.1 0 .3.1.5.4.1.2.2.3.2.4 0 .1 0 .2-.1.2l-.2.2c-.1.1-.2.1-.2.1-.1 0-.2.1-.5.2-.2.1-.5.1-.7.1-.2 0-.4 0-.7-.1-.2-.1-.5-.2-.7-.3-.2-.1-.5-.3-.6-.5-.2-.2-.3-.5-.5-.8-.1-.3-.2-.6-.2-1s.1-.7.2-1 .3-.5.5-.7c.2-.2.4-.4.6-.5.5-.3.9-.4 1.4-.4.2 0 .4 0 .7.1.2.1.4.1.5.2l.2.1c.1.1.1.1.2.1.1.1.2.2.2.3 0 .1 0 .3-.1.4-.2.3-.3.4-.5.4-.1 0-.2-.1-.4-.2-.2-.2-.5-.2-.8-.2-.3 0-.6.1-.9.3-.1.1-.3.2-.3.4-.1.2-.1.4-.1.6 0 .2 0 .4.1.6.1.2.2.3.4.4.3.2.6.3.9.3.1 0 .3 0 .4-.1-.1.2 0 .2.1.2zm5.7.3h1.9c.2 0 .3 0 .3.1.1 0 .1.1.1.2v.6c0 .1-.1.1-.1.2-.1 0-.2.1-.4.1h-2.5c-.3 0-.5-.1-.6-.3v-4.5c0-.1 0-.1.1-.2s.2-.2.5-.2.5.1.6.3V93zm7-.2h2.4c.1 0 .1 0 .2.1s.2.2.2.5-.1.5-.3.6h-3.2c-.3 0-.5-.1-.6-.3v-4.3c0-.2 0-.4.1-.5.1-.1.3-.1.5-.1h3c.1 0 .1 0 .2.1s.2.2.2.5-.1.5-.3.6H276v.7h1.6c.1 0 .1 0 .2.1s.2.2.2.5-.1.5-.3.6h-1.8v.9zm9.6-3.9h.2c.1 0 .1 0 .2.1.1 0 .1.1.1.2v.8c0 .1-.1.2-.1.2-.1 0-.1.1-.2.1h-2.3v.7h1.6c.1 0 .1 0 .2.1s.2.3.2.6-.1.5-.3.6h-1.8v1.5c0 .1 0 .1-.1.2s-.2.2-.5.2-.5-.1-.6-.3v-4.3c0-.2 0-.4.1-.5.1-.1.3-.1.5-.1h2.8zm4.1 4.4c-.1-.1-.2-.3-.2-.4 0-.1.1-.3.3-.5.1-.1.2-.2.4-.2.1 0 .3.1.5.3.1.1.2.2.3.2.1.1.2.1.3.1.4 0 .7-.2.7-.5 0-.1-.1-.2-.2-.3-.1-.1-.3-.1-.4-.2-.2 0-.4-.1-.6-.2l-.6-.3c-.2-.1-.3-.3-.4-.5-.1-.2-.2-.5-.2-.8 0-.4.2-.8.5-1.1.3-.3.7-.5 1.2-.5.3 0 .5 0 .8.1.2.1.4.1.5.2l.2.1c.1.1.2.2.2.3 0 .1-.1.2-.2.4-.2.2-.3.3-.5.3-.1 0-.2 0-.4-.1l-.1-.1-.1-.1c-.1-.1-.2-.1-.4-.1s-.3 0-.4.1c-.1.1-.2.2-.2.3 0 .1.1.2.2.3.1.1.3.1.4.2.2 0 .4.1.6.1.2.1.4.1.6.2.2.1.3.2.4.4.1.2.2.5.2.8 0 .3-.1.6-.2.8-.1.2-.3.4-.5.5-.4.2-.8.4-1.2.4-.2 0-.4 0-.6-.1-.2-.1-.4-.1-.5-.2-.1.4-.3.3-.4.1zm12.8-.5h2.4c.1 0 .1 0 .2.1s.2.2.2.5-.1.5-.3.6H302c-.3 0-.5-.1-.6-.3v-4.3c0-.2 0-.4.1-.5.1-.1.3-.1.5-.1h3c.1 0 .1 0 .2.1s.2.2.2.5-.1.5-.3.6h-2.5v.7h1.6c.1 0 .1 0 .2.1s.2.2.2.5-.1.5-.3.6h-1.8v.9zm6.5-3.9h3.9c.1 0 .3 0 .3.1.1 0 .1.1.1.2v.6c0 .1-.1.1-.1.2-.1 0-.2.1-.4.1h-1.3v3.7c0 .1 0 .1-.1.2 0 .1-.1.1-.2.1h-.6c-.1 0-.1-.1-.2-.1 0-.1-.1-.1-.1-.2v-3.7h-1.3c-.1 0-.3 0-.3-.1-.1 0-.1-.1-.1-.2v-.6c0-.1.1-.1.1-.2.1-.1.2-.1.3-.1zm15.6 3.8l.1-.1c.2-.1.3-.1.3-.1.1 0 .3.1.5.4.1.2.2.3.2.4 0 .1 0 .2-.1.2l-.2.2c-.1.1-.2.1-.2.1-.1 0-.2.1-.5.2-.2.1-.5.1-.7.1-.2 0-.4 0-.7-.1-.2-.1-.5-.2-.7-.3-.2-.1-.5-.3-.6-.5-.2-.2-.3-.5-.5-.8-.1-.3-.2-.6-.2-1s.1-.7.2-1 .3-.5.5-.7c.2-.2.4-.4.6-.5.5-.3.9-.4 1.4-.4.2 0 .4 0 .7.1.2.1.4.1.5.2l.2.1c.1.1.1.1.2.1.1.1.2.2.2.3 0 .1 0 .3-.1.4-.2.3-.3.4-.5.4-.1 0-.2-.1-.4-.2-.2-.2-.5-.2-.8-.2-.3 0-.6.1-.9.3-.1.1-.3.2-.3.4-.1.2-.1.4-.1.6 0 .2 0 .4.1.6.1.2.2.3.4.4.3.2.6.3.9.3.1 0 .3 0 .4-.1 0 .2.1.2.1.2zm7.3-3.5l1.9 3.9c.1.2.1.3.1.4 0 .2-.1.3-.4.5-.2.1-.3.1-.4.1-.1 0-.2 0-.2-.1-.1 0-.1-.1-.1-.1s-.1-.1-.1-.2l-.4-.8h-1.9l-.4.8c0 .1-.1.2-.1.2l-.1.1c-.1 0-.1.1-.2.1s-.2 0-.4-.1c-.3-.1-.4-.3-.4-.4 0-.1 0-.2.1-.4l1.9-3.9c.1-.1.1-.2.2-.3.1-.1.2-.1.3-.1.3 0 .5.1.6.3zm-.5 1.7l-.5 1h.9l-.4-1zm9.8 2.2c.1.2.1.3.1.4 0 .2-.1.3-.4.4-.1.1-.3.1-.4.1-.1 0-.2 0-.2-.1-.1 0-.1-.1-.1-.1 0-.1-.2-.5-.5-1.3h-1.1v1c0 .1 0 .1-.1.2s-.2.2-.5.2-.5-.1-.6-.3v-4.5c0-.1 0-.1.1-.2s.2-.2.5-.2h1.5c.4 0 .8.1 1.2.4.2.1.3.3.5.6.1.2.2.5.2.8 0 .5-.2 1-.5 1.3-.1.5.1.8.3 1.3zm-2.7-1.8h.9c.1 0 .3-.1.4-.2.1-.1.2-.3.2-.5s-.1-.4-.2-.5c-.1-.1-.3-.2-.4-.2h-.9v1.4zm6.2-2.4h3.9c.1 0 .3 0 .3.1.1 0 .1.1.1.2v.6c0 .1-.1.1-.1.2-.1 0-.2.1-.4.1h-1.3v3.7c0 .1 0 .1-.1.2 0 .1-.1.1-.2.1h-.6c-.1 0-.1-.1-.2-.1 0-.1-.1-.1-.1-.2v-3.7h-1.3c-.1 0-.3 0-.3-.1-.1 0-.1-.1-.1-.2v-.6c0-.1.1-.1.1-.2s.1-.1.3-.1zm8.9 3.9h2.4c.1 0 .1 0 .2.1s.2.2.2.5-.1.5-.3.6H353c-.3 0-.5-.1-.6-.3v-4.3c0-.2 0-.4.1-.5.1-.1.3-.1.5-.1h3c.1 0 .1 0 .2.1s.2.2.2.5-.1.5-.3.6h-2.5v.7h1.6c.1 0 .1 0 .2.1s.2.2.2.5-.1.5-.3.6h-1.8v.9zm6.3.5c-.1-.1-.2-.3-.2-.4 0-.1.1-.3.3-.5.1-.1.2-.2.4-.2.1 0 .3.1.5.3.1.1.2.2.3.2.1.1.2.1.3.1.4 0 .7-.2.7-.5 0-.1-.1-.2-.2-.3-.1-.1-.3-.1-.4-.2-.2 0-.4-.1-.6-.2l-.6-.3c-.2-.1-.3-.3-.4-.5-.1-.2-.2-.5-.2-.8 0-.4.2-.8.5-1.1.3-.3.7-.5 1.2-.5.3 0 .5 0 .8.1.2.1.4.1.5.2l.2.1c.1.1.2.2.2.3 0 .1-.1.2-.2.4-.2.2-.3.3-.5.3-.1 0-.2 0-.4-.1l-.1-.1-.1-.1c-.1-.1-.2-.1-.4-.1s-.3 0-.4.1c-.1.1-.2.2-.2.3 0 .1.1.2.2.3.1.1.3.1.4.2.2 0 .4.1.6.1.2.1.4.1.6.2.2.1.3.2.4.4.1.2.2.5.2.8 0 .3-.1.6-.2.8-.1.2-.3.4-.5.5-.4.2-.8.4-1.2.4-.2 0-.4 0-.6-.1-.2-.1-.4-.1-.5-.2-.1.4-.3.3-.4.1z" fill="#454341"/><path fill="#ABA39D" d="M129.5 90.9c-.1 0-.3 0-.4-.1-.2-.1-3.9-1.4-6-2.3-2.2 1.2-4.7 1.8-7.2 1.8-8.5 0-15.4-6.9-15.4-15.4s6.9-15.4 15.4-15.4 15.4 6.9 15.4 15.4c0 3-.9 5.9-2.5 8.5l1.9 5.9c.1.4 0 .9-.3 1.2-.3.3-.6.4-.9.4zM115.9 62c-7.2 0-13 5.8-13 13s5.8 13 13 13c2.3 0 4.5-.6 6.5-1.7.3-.2.7-.2 1-.1 1 .4 2.8 1.1 4.2 1.6l-1.3-4.2c-.1-.4 0-.7.2-1 1.6-2.2 2.4-4.8 2.4-7.6 0-7.2-5.8-13-13-13z"/><path fill="#C5351F" d="M124.3 77.3c-2.1-2.4-5.1-3.9-8.2-3.9-3.2 0-6.2 1.4-8.2 3.9-.3.3-.2.8.1 1.1.1.1.3.2.5.2s.4-.1.6-.3c1.8-2.1 4.3-3.3 7.1-3.3 2.7 0 5.3 1.2 7.1 3.3.2.2.4.3.6.3.2 0 .3-.1.5-.2.2-.3.2-.7-.1-1.1z"/><path fill="#C5351F" d="M116.1 76.6c-2.3 0-4.4 1-5.9 2.7-.3.3-.2.8.1 1.1.1.1.3.2.5.2s.4-.1.6-.3c1.2-1.4 2.9-2.2 4.7-2.2 1.8 0 3.5.8 4.7 2.2.2.2.4.3.6.3.2 0 .3-.1.5-.2.3-.3.4-.8.1-1.1-1.5-1.7-3.6-2.7-5.9-2.7z"/><path fill="#C5351F" d="M116.1 79.6c-1.4 0-2.6.6-3.5 1.7-.3.3-.2.8.1 1.1.1.1.3.2.5.2s.4-.1.6-.3c.6-.7 1.4-1.1 2.4-1.1.9 0 1.8.4 2.4 1.1.2.2.4.3.6.3.2 0 .4-.1.5-.2.3-.3.4-.8.1-1.1-1.1-1.1-2.3-1.7-3.7-1.7z"/><circle fill="#C5351F" cx="116.1" cy="83.1" r="1"/><path fill="#454341" d="M140 76.6c-.3 0-.6-.1-.9-.2l-13.5-7c-3.8 1.4-7.9 2.1-12 2.1-19.7 0-35.7-16-35.7-35.7C77.9 16 93.9 0 113.6 0c19.7 0 35.7 16 35.7 35.7 0 9.5-3.6 18.3-10.2 25l2.7 13.5c.1.7-.1 1.5-.7 1.9-.3.4-.7.5-1.1.5zm-14.2-11.2c.3 0 .6.1.9.2l10.7 5.5-2.1-10.5c-.2-.7 0-1.4.5-1.9 6.3-6.1 9.8-14.3 9.8-23 0-17.6-14.3-31.9-31.9-31.9-17.7 0-32 14.4-32 31.9 0 17.6 14.3 31.9 31.9 31.9 3.9 0 7.8-.7 11.4-2.1.3-.1.5-.1.8-.1zm243.6 14.4c-1.2-2.8-1.3-6-.1-8.9 2.4-6 9.2-9 15.2-6.6 6 2.4 9 9.2 6.6 15.2-2.4 6-9.2 9-15.2 6.6-1.3-.5-2.4-1.2-3.4-2.1l-5 .5h-.3c-.1 0-.2-.1-.3-.3-.1-.2-.1-.5 0-.7l2.5-3.7z"/><path d="M371.5 76.8c.1.1.1.3.1.5v.3c0 .1 0 .1-.1.2s-.3.2-.6.2-.5 0-.6-.1c-.1-.1-.1-.3-.1-.5v-.3c0-.1 0-.1.1-.2s.3-.2.6-.2.5-.1.6.1zm4.3-.2l.1-.1c.2-.1.3-.1.4-.1.2 0 .3.1.5.4.1.2.2.3.2.4 0 .1 0 .2-.1.3l-.2.2c-.1.1-.2.1-.3.2-.1 0-.2.1-.5.2s-.5.1-.7.1c-.2 0-.5 0-.7-.1-.2-.1-.5-.2-.7-.3-.3-.1-.5-.3-.7-.5-.2-.2-.4-.5-.5-.8-.1-.3-.2-.7-.2-1.1 0-.4.1-.7.2-1 .1-.3.3-.6.5-.8.2-.2.4-.4.7-.5.5-.3 1-.4 1.4-.4.2 0 .5 0 .7.1.2.1.4.1.5.2l.2.1c.1.1.2.1.2.1.1.1.2.2.2.3 0 .1-.1.3-.2.4-.2.3-.4.4-.5.4-.1 0-.2-.1-.4-.2-.2-.2-.5-.3-.8-.3-.3 0-.6.1-.9.3-.1.1-.3.3-.4.5-.1.2-.1.4-.1.7s0 .5.1.7c.1.2.2.4.4.5.3.2.6.3.9.3.2 0 .3 0 .4-.1.1-.1.2-.1.3-.1zm4.4-4.1c.7 0 1.4.3 1.9.8s.8 1.2.8 2-.3 1.4-.8 2c-.5.5-1.1.8-1.9.8a2.732 2.732 0 0 1-2.7-2.7c0-.4.1-.8.2-1.1.1-.4.3-.7.6-.9.2-.2.5-.4.8-.6.5-.2.8-.3 1.1-.3zm-1.3 2.8c0 .4.1.8.4 1.1.3.3.6.4.9.4.3 0 .7-.1.9-.4.3-.3.4-.6.4-1.1 0-.4-.1-.8-.4-1.1-.3-.3-.6-.4-.9-.4-.3 0-.7.1-.9.4-.3.3-.4.6-.4 1.1zm10.5-2.5c0 .1.1.1.1.2v4.4c0 .3-.1.5-.3.6h-.7c-.1 0-.1-.1-.2-.1l-.1-.1v-2.9c-.1.2-.3.4-.5.7-.2.3-.4.5-.4.6-.1.1-.1.1-.1.2 0 0-.1.1-.2.1-.1.1-.2.1-.3.1-.1 0-.2 0-.3-.1-.1-.1-.2-.1-.2-.2l-.1-.1c-.1-.1-.3-.4-.6-.8s-.4-.6-.5-.6v2.8c0 .1 0 .1-.1.2s-.3.2-.6.2-.5-.1-.6-.2c0-.1-.1-.1-.1-.2v-4.7c0-.1 0-.1.1-.2s.3-.2.6-.2h.3c.1 0 .2.1.2.1l1.7 2.2c.8-1.1 1.4-1.8 1.7-2.2.1-.1.3-.2.6-.2s.6.2.6.4z" fill="#FFF"/></svg>