<svg xmlns="http://www.w3.org/2000/svg" viewBox="301.2 10.1 587.9 653.3"><path fill="#9B1B0D" d="M853.5 210.1L834.8 229c90 119.9 65.7 290.1-54.2 380.1-41.9 31.5-92.1 50.1-144.4 53.7-6.2.4-12.3.6-18.5.6-76.9.2-150.2-32.4-201.6-89.5-6.1-7-5.3-17.7 1.8-23.7 6.8-5.9 17-5.4 23.2 1.2 88.1 97.5 238.5 105.1 336 17.1 95.2-86 105.1-232 22.3-330-5.7-6.7-5.3-16.6.9-22.8l29.4-29.4c4.4-4.9 4-12.4-.8-16.8-4.5-4.1-11.5-4.1-16 0L782.4 200c-5.9 5.9-15.3 6.6-22 1.5-33.8-25.3-73.7-41.2-115.7-45.9-8.5-.9-15-8.1-15-16.7V84.5c-.1-9.3 7.3-17 16.6-17.1H662c6.6 0 11.9-5.3 11.9-11.9 0-6.6-5.3-11.9-11.9-11.9h-88.4c-6.6 0-11.9 5.3-11.9 11.9 0 6.6 5.3 11.9 11.9 11.9H589c9.3 0 16.8 7.5 16.8 16.8v54.6c0 8.6-6.4 15.7-15 16.7-54.4 6.2-105.1 31-143.3 70.2-6.5 6.7-17.2 6.8-23.9.2-6.7-6.5-6.8-17.2-.2-23.9 40.1-41 92.2-68.3 148.7-77.9V101c-25.1-2.3-43.6-24.5-41.3-49.5 2-22.4 20.2-40 42.7-41.4h88.4c25.1 1.5 44.3 23.1 42.8 48.2-1.3 22.5-18.9 40.6-41.4 42.7v22.8c37.6 6.4 73.5 20.6 105.3 41.8l20.2-20.2c17.8-17.8 46.7-17.8 64.5 0 17.8 17.8 17.8 46.7 0 64.5l.2.2zm-552.3 95.5c0 9.3 7.5 16.8 16.8 16.8h117c9.3 0 16.8-7.5 16.8-16.8s-7.5-16.8-16.8-16.8H318.1c-9.2-.1-16.8 7.4-16.9 16.8zm191.4 81.6c0-9.3-7.5-16.8-16.8-16.8H358.9c-9.3 0-16.8 7.5-16.8 16.8s7.5 16.8 16.8 16.8h116.9c9.3 0 16.8-7.5 16.8-16.8zm-174.5 98.5H435c9.3 0 16.8-7.5 16.8-16.8s-7.5-16.8-16.8-16.8H318.1c-9.3 0-16.8 7.5-16.8 16.8s7.5 16.8 16.8 16.8zm393-163.5l-43.2 43.2c14.6 27.8 4 62.2-23.8 76.9-27.8 14.6-62.2 4-76.9-23.8-14.6-27.8-4-62.2 23.8-76.9 16.6-8.7 36.4-8.7 53 0l43.2-43.2c6.6-6.6 17.3-6.6 23.8 0 6.7 6.6 6.7 17.2.1 23.8zm-70.3 69.6c0-12.8-10.3-23.1-23.1-23.1s-23.1 10.3-23.1 23.1 10.3 23.1 23.1 23.1c12.7 0 23.1-10.3 23.1-23.1zm-23.1 200.4c110.7.2 200.6-89.4 200.8-200.1.2-110.7-89.4-200.6-200.1-200.8-53.3-.1-104.4 21-142.1 58.7-6.6 6.6-6.6 17.3 0 23.8 6.6 6.6 17.3 6.6 23.8 0 65.1-65.2 170.7-65.3 235.9-.2 65.2 65.1 65.3 170.7.2 235.9-65.1 65.2-170.7 65.3-235.9.2l-.2-.2c-6.6-6.6-17.3-6.6-23.8 0-6.6 6.6-6.6 17.3 0 23.8 37.4 37.8 88.3 58.9 141.4 58.9z"/></svg>