<svg xmlns="http://www.w3.org/2000/svg" viewBox="285.5 26.9 619.6 619.6"><path fill="#9B1B0D" d="M595.3 26.938c-11.2 0-20.2 9-20.2 20.2v41.3c-121.3 9.8-218.4 106.8-228.2 228.2h-41.3c-11.2 0-20.2 9-20.2 20.2s9 20.2 20.2 20.2h41.3c9.8 121.3 106.8 218.4 228.2 228.2v41.3c0 11.2 9 20.2 20.2 20.2s20.2-9 20.2-20.2v-41.3c121.3-9.8 218.4-106.8 228.2-228.2H885c11.2 0 20.2-9 20.2-20.2s-9-20.2-20.2-20.2h-41.3c-9.8-121.3-106.8-218.4-228.2-228.2v-41.3c0-11.2-9.1-20.2-20.2-20.2zm-21.5 102.1c.4-.1.9.1 1.3 0v39.4c0 11.2 9 20.2 20.2 20.2s20.2-9 20.2-20.2v-39.4c99.4 9.5 178.1 88.1 187.5 187.5h-39.4c-11.2 0-20.2 9-20.2 20.2s9 20.2 20.2 20.2H803c-9.5 99.4-88.1 178.1-187.5 187.5v-39.4c0-11.2-9-20.2-20.2-20.2s-20.2 9-20.2 20.2v39.4c-99.4-9.5-178.1-88.1-187.5-187.5H427c11.2 0 20.2-9 20.2-20.2s-9-20.2-20.2-20.2h-39.4c9.4-99 87.4-177.5 186.2-187.5zm48.6 86.5c-50 0-93.2 30.7-111.8 74.1h-16.4c-11.2 0-20.2 9-20.2 20.2s9 20.2 20.2 20.2h7.2c-.1 2.3-.4 4.4-.4 6.7 0 4.5.3 9.1.8 13.5h-7.6c-11.2 0-20.2 9-20.2 20.2s9 20.2 20.2 20.2h19.6c20 39.8 61.2 67.4 108.6 67.4 38.5 0 66.3-17.9 88.2-39.8 8.2-7.3 6.4-24 .8-29.5-9.1-9-22.2-7.2-29.5 1.1-18.5 18.5-32 27.8-59.6 27.8-24.1 0-45.6-10.4-60.4-26.9H629c11.2 0 20.2-9 20.2-20.2s-9-20.2-20.2-20.2h-86.3c-.7-4.4-1.3-8.9-1.3-13.5 0-2.3.2-4.5.4-6.7H629c11.2 0 20.2-9 20.2-20.2s-9-20.2-20.2-20.2h-72.2c14.7-20.4 38.5-33.7 65.7-33.7 27.5 0 41.1 9.1 59.6 27.6 7.2 8.3 21.7 8.8 29.5 1.1s6-23.2-.8-29.5c-22.1-22.1-49.9-39.7-88.4-39.7z"/></svg>