<?xml version="1.0" encoding="utf-8"?>
<!-- Generator: Adobe Illustrator 17.1.0, SVG Export Plug-In . SVG Version: 6.00 Build 0)  -->
<!DOCTYPE svg PUBLIC "-//W3C//DTD SVG 1.1//EN" "http://www.w3.org/Graphics/SVG/1.1/DTD/svg11.dtd">
<svg version="1.1" id="Mode_Isolation" xmlns="http://www.w3.org/2000/svg" xmlns:xlink="http://www.w3.org/1999/xlink" x="0px"
	 y="0px" viewBox="0 0 30.7 31.3" enable-background="new 0 0 30.7 31.3" xml:space="preserve">
<g>
	<path fill="#F4F4F4" d="M28.9,31.3c-0.1,0-0.3,0-0.4-0.1c-0.2-0.1-3.9-1.4-6-2.3c-2.2,1.2-4.7,1.8-7.2,1.8C6.9,30.7,0,23.8,0,15.4
		C0,6.9,6.9,0,15.4,0c8.5,0,15.4,6.9,15.4,15.4c0,3-0.9,5.9-2.5,8.5l1.9,5.9c0.1,0.4,0,0.9-0.3,1.2C29.5,31.2,29.2,31.3,28.9,31.3z
		 M15.4,2.4c-7.2,0-13,5.8-13,13c0,7.2,5.8,13,13,13c2.3,0,4.5-0.6,6.5-1.7c0.3-0.2,0.7-0.2,1-0.1c1,0.4,2.8,1.1,4.2,1.6L25.8,24
		c-0.1-0.4,0-0.7,0.2-1c1.6-2.2,2.4-4.8,2.4-7.6C28.4,8.2,22.5,2.4,15.4,2.4z"/>
	<path fill="#F4F4F4" d="M24.5,15.1c-2.2-2.7-5.5-4.2-9-4.2c-3.5,0-6.7,1.5-9,4.2c-0.3,0.4-0.3,0.9,0.1,1.2c0.2,0.1,0.3,0.2,0.5,0.2
		c0.2,0,0.5-0.1,0.6-0.3c1.9-2.3,4.7-3.6,7.7-3.6c3,0,5.8,1.3,7.7,3.6c0.2,0.2,0.4,0.3,0.6,0.3c0.2,0,0.4-0.1,0.5-0.2
		C24.8,15.9,24.8,15.4,24.5,15.1z"/>
	<path fill="#F4F4F4" d="M15.5,14.2c-2.5,0-4.8,1.1-6.4,3c-0.3,0.4-0.3,0.9,0.1,1.2c0.2,0.1,0.3,0.2,0.5,0.2c0.2,0,0.5-0.1,0.6-0.3
		c1.3-1.5,3.1-2.4,5.1-2.4c2,0,3.8,0.9,5.1,2.4c0.2,0.2,0.4,0.3,0.6,0.3c0.2,0,0.4-0.1,0.5-0.2c0.4-0.3,0.4-0.8,0.1-1.2
		C20.3,15.3,18,14.2,15.5,14.2z"/>
	<path fill="#F4F4F4" d="M15.5,17.6c-1.5,0-2.9,0.7-3.8,1.8c-0.3,0.4-0.3,0.9,0.1,1.2c0.2,0.1,0.3,0.2,0.5,0.2
		c0.2,0,0.5-0.1,0.6-0.3c0.6-0.8,1.6-1.2,2.6-1.2c1,0,1.9,0.4,2.6,1.2c0.2,0.2,0.4,0.3,0.6,0.3c0.2,0,0.4-0.1,0.5-0.2
		c0.4-0.3,0.4-0.8,0.1-1.2C18.4,18.2,17,17.6,15.5,17.6z"/>
	<circle fill="#F4F4F4" cx="15.5" cy="21.4" r="1.1"/>
</g>
</svg>
