<?xml version="1.0" encoding="utf-8"?>
<!-- Generator: Adobe Illustrator 17.1.0, SVG Export Plug-In . SVG Version: 6.00 Build 0)  -->
<!DOCTYPE svg PUBLIC "-//W3C//DTD SVG 1.1//EN" "http://www.w3.org/Graphics/SVG/1.1/DTD/svg11.dtd">
<svg version="1.1" id="Layer_1" xmlns="http://www.w3.org/2000/svg" xmlns:xlink="http://www.w3.org/1999/xlink" x="0px" y="0px"
	 viewBox="0 0 55.3 31.2" enable-background="new 0 0 55.3 31.2" xml:space="preserve">
<path fill="#F4F4F4" d="M35.6,3.6h-8.5v8.9h13.4v-2.1L35.6,3.6z M34.6,5.3l3.8,5.3h-9.6V5.3H34.6z"/>
<path fill="#F4F4F4" d="M17.7,3.6l-4.9,6.8v2.1h13.4V3.6H17.7z M14.8,10.7l3.8-5.3h5.8v5.3H14.8z"/>
<path fill="#F4F4F4" d="M0,15.2v8c0,1.2,0.5,2.7,2.7,2.7h3.6c0.2,1.4,0.9,2.6,1.8,3.6H0v1.8h42.8c3.1,0,5.7-2.3,6.2-5.3h2.7
	c1.9,0,3.6-1.6,3.6-3.6V16c0-2.7-1.7-4.8-4.3-5.3l-5.4-0.9c-0.7-0.1-1.3-0.6-2.1-1.5l-4.4-6.2C37.9,0.7,36.6,0,34.8,0H17.8
	c-1.8,0-3.1,0.7-4.3,2.1L9.1,8.4C8.3,9.3,7.8,9.6,6.9,9.8l-3.6,0.9C1.8,11,0,12.9,0,15.2z M38.3,25c0-2.5,2-4.5,4.5-4.5
	c2.5,0,4.5,2,4.5,4.5c0,2.5-2,4.5-4.5,4.5C40.3,29.4,38.3,27.4,38.3,25z M16.8,29.4c1-0.9,1.6-2.2,1.8-3.6h18
	c0.2,1.4,0.9,2.6,1.8,3.6H16.8z M8,25c0-2.5,2-4.5,4.5-4.5c2.5,0,4.5,2,4.5,4.5c0,2.5-2,4.5-4.5,4.5C10,29.4,8,27.4,8,25z M1.8,23.2
	v-8c0-1.3,1.2-2.6,1.9-2.7l3.6-0.9c1.4-0.4,2.3-1.1,3.1-2.1L15,3.2c0.8-1,1.6-1.4,2.8-1.4h16.9c1.3,0,2,0.4,2.9,1.4l4.4,6.2
	c1.1,1.3,2.1,1.9,3.2,2.1l5.4,0.9c1.3,0.3,2.8,1.4,2.8,3.6h-1.8c-1.1,0-1.8,0.6-1.8,1.8v1.8h1.8v-1.8h1.8v4.5c0,1-0.8,1.8-1.8,1.8
	H49c-0.4-3-3-5.3-6.2-5.3c-3.1,0-5.7,2.3-6.2,5.3h-18c-0.4-3-3-5.3-6.2-5.3c-3.1,0-5.7,2.3-6.2,5.3H2.7C1.9,24.1,1.8,23.9,1.8,23.2
	L1.8,23.2L1.8,23.2z"/>
<rect x="27.1" y="14.3" fill="#F4F4F4" width="2.7" height="1.8"/>
<path fill="#F4F4F4" d="M40.5,25c0,1.5,1.2,2.7,2.7,2.7c1.5,0,2.7-1.2,2.7-2.7s-1.2-2.7-2.7-2.7C41.7,22.3,40.5,23.5,40.5,25z
	 M42.2,25c0-0.5,0.4-0.9,0.9-0.9c0.5,0,0.9,0.4,0.9,0.9c0,0.5-0.4,0.9-0.9,0.9C42.6,25.9,42.2,25.5,42.2,25z"/>
<path fill="#F4F4F4" d="M10.1,25c0,1.5,1.2,2.7,2.7,2.7c1.5,0,2.7-1.2,2.7-2.7s-1.2-2.7-2.7-2.7C11.3,22.3,10.1,23.5,10.1,25z
	 M11.9,25c0-0.5,0.4-0.9,0.9-0.9c0.5,0,0.9,0.4,0.9,0.9c0,0.5-0.4,0.9-0.9,0.9C12.3,25.9,11.9,25.5,11.9,25z"/>
</svg>
