<?xml version="1.0" encoding="utf-8"?>
<!-- Generator: Adobe Illustrator 17.1.0, SVG Export Plug-In . SVG Version: 6.00 Build 0)  -->
<!DOCTYPE svg PUBLIC "-//W3C//DTD SVG 1.1//EN" "http://www.w3.org/Graphics/SVG/1.1/DTD/svg11.dtd">
<svg version="1.1" id="Layer_1" xmlns="http://www.w3.org/2000/svg" xmlns:xlink="http://www.w3.org/1999/xlink" x="0px" y="0px"
	 viewBox="0 0 71.5 76.6" enable-background="new 0 0 71.5 76.6" xml:space="preserve">
<g>
	<path fill="#F4F4F4" d="M22.4,28.8v2.1h13.4v-8.9h-8.5L22.4,28.8z M34,23.7V29h-9.6l3.8-5.3H34z"/>
	<path fill="#F4F4F4" d="M36.6,21.9v8.9H50v-2.1l-4.9-6.8H36.6z M38.4,29v-5.3h5.8L48,29H38.4z"/>
	<path fill="#F4F4F4" d="M59.5,29.1l-3.6-0.9c-0.9-0.2-1.4-0.6-2.2-1.4l-4.5-6.3c-1.1-1.5-2.5-2.1-4.3-2.1H28.1
		c-1.8,0-3.1,0.7-4.3,2.2l-4.4,6.2c-0.8,0.9-1.4,1.3-2.1,1.5l-5.4,0.9c-2.6,0.5-4.3,2.7-4.3,5.3v6.2c0,1.9,1.6,3.6,3.6,3.6h2.7
		c0.4,3,3,5.3,6.2,5.3h42.8v-1.8h-8.1c1-0.9,1.6-2.2,1.8-3.6h3.6c2.2,0,2.7-1.5,2.7-2.7v-8C62.8,31.3,61,29.3,59.5,29.1z M20.1,47.8
		c-2.5,0-4.5-2-4.5-4.5c0-2.5,2-4.5,4.5-4.5s4.5,2,4.5,4.5C24.5,45.8,22.5,47.8,20.1,47.8z M24.4,47.8c1-0.9,1.6-2.2,1.8-3.6h18
		c0.2,1.4,0.9,2.6,1.8,3.6H24.4z M50.4,47.8c-2.5,0-4.5-2-4.5-4.5c0-2.5,2-4.5,4.5-4.5c2.5,0,4.5,2,4.5,4.5
		C54.8,45.8,52.8,47.8,50.4,47.8z M61.1,41.5L61.1,41.5c0,0.8-0.1,0.9-0.9,0.9h-3.6c-0.4-3-3-5.3-6.2-5.3c-3.1,0-5.7,2.3-6.2,5.3
		h-18c-0.4-3-3-5.3-6.2-5.3c-3.1,0-5.7,2.3-6.2,5.3h-2.7c-0.9,0-1.8-0.8-1.8-1.8v-4.5h1.8V38h1.8v-1.8c0-1.1-0.6-1.8-1.8-1.8H9.4
		c0-2.2,1.5-3.3,2.8-3.6l5.4-0.9c1.2-0.2,2.1-0.9,3.2-2.1l4.4-6.2c0.8-1,1.6-1.4,2.9-1.4H45c1.3,0,2,0.4,2.8,1.4l4.5,6.3
		c0.9,1,1.7,1.7,3.1,2.1l3.6,0.9c0.8,0.1,1.9,1.3,1.9,2.7V41.5L61.1,41.5z"/>
	<rect x="33.1" y="32.6" fill="#F4F4F4" width="2.7" height="1.8"/>
	<path fill="#F4F4F4" d="M19.7,40.6c-1.5,0-2.7,1.2-2.7,2.7c0,1.5,1.2,2.7,2.7,2.7c1.5,0,2.7-1.2,2.7-2.7
		C22.4,41.8,21.2,40.6,19.7,40.6z M19.7,44.2c-0.5,0-0.9-0.4-0.9-0.9s0.4-0.9,0.9-0.9c0.5,0,0.9,0.4,0.9,0.9S20.2,44.2,19.7,44.2z"
		/>
	<path fill="#F4F4F4" d="M50,40.6c-1.5,0-2.7,1.2-2.7,2.7c0,1.5,1.2,2.7,2.7,2.7c1.5,0,2.7-1.2,2.7-2.7C52.7,41.8,51.5,40.6,50,40.6
		z M50,44.2c-0.5,0-0.9-0.4-0.9-0.9s0.4-0.9,0.9-0.9c0.5,0,0.9,0.4,0.9,0.9S50.5,44.2,50,44.2z"/>
	<path fill="#F4F4F4" d="M62.1,76.6c-0.3,0-0.6-0.1-0.9-0.2l-13.5-7c-3.8,1.4-7.9,2.1-12,2.1C16,71.5,0,55.5,0,35.7
		C0,16,16,0,35.7,0c19.7,0,35.7,16,35.7,35.7c0,9.5-3.6,18.3-10.2,25L64,74.3c0.1,0.7-0.1,1.5-0.7,1.9
		C62.9,76.5,62.5,76.6,62.1,76.6z M47.9,65.4c0.3,0,0.6,0.1,0.9,0.2l10.7,5.5l-2.1-10.5c-0.2-0.7,0-1.4,0.5-1.9
		c6.3-6.1,9.8-14.3,9.8-23c0-17.6-14.3-31.9-31.9-31.9C18.2,3.8,3.8,18.2,3.8,35.7c0,17.6,14.3,31.9,31.9,31.9
		c3.9,0,7.8-0.7,11.4-2.1C47.4,65.4,47.6,65.4,47.9,65.4z"/>
</g>
</svg>
