<?xml version="1.0" encoding="utf-8"?>
<!-- Generator: Adobe Illustrator 17.1.0, SVG Export Plug-In . SVG Version: 6.00 Build 0)  -->
<!DOCTYPE svg PUBLIC "-//W3C//DTD SVG 1.1//EN" "http://www.w3.org/Graphics/SVG/1.1/DTD/svg11.dtd">
<svg version="1.1" id="Layer_1" xmlns="http://www.w3.org/2000/svg" xmlns:xlink="http://www.w3.org/1999/xlink" x="0px" y="0px"
	 viewBox="0 0 391.9 106.1" enable-background="new 0 0 391.9 106.1" xml:space="preserve">
<g>
	
		<radialGradient id="SVGID_1_" cx="83.3246" cy="-71.1515" r="123.9786" gradientTransform="matrix(0.5538 0 0 4.348000e-002 50.7816 104.6654)" gradientUnits="userSpaceOnUse">
		<stop  offset="0.1034" style="stop-color:#E0E2DF"/>
		<stop  offset="0.3541" style="stop-color:#EDEEEC;stop-opacity:0.7204"/>
		<stop  offset="0.7213" style="stop-color:#FAFAFA;stop-opacity:0.3109"/>
		<stop  offset="1" style="stop-color:#FFFFFF;stop-opacity:0"/>
	</radialGradient>
	<path opacity="0.9" fill="url(#SVGID_1_)" d="M0,101.6C0,99.1,43.4,97,96.9,97c53.5,0,96.9,2,96.9,4.5c0,2.5-43.4,4.5-96.9,4.5
		C43.4,106.1,0,104.1,0,101.6z"/>
	<path fill="none" d="M71.5,37.7c-13.9,0-25.2,11.3-25.2,25.2c0,6.9,2.8,13.4,7.8,18.2c0.5,0.5,0.7,1.2,0.5,1.8L53,90.6l7.9-4.1
		c0.5-0.2,1-0.3,1.5-0.1c2.9,1.1,5.9,1.7,9,1.7c13.9,0,25.2-11.3,25.2-25.2C96.7,49,85.4,37.7,71.5,37.7z"/>
	<path fill="#C5351F" d="M96.7,64.6c-0.9,13.1-11.8,23.5-25.1,23.5c-3.1,0-6.2-0.6-9-1.7c-0.5-0.2-1.1-0.2-1.5,0.1L53,90.6l1.6-7.7
		c0.2-0.6,0-1.3-0.5-1.8c-5-4.8-7.8-11.3-7.8-18.2c0-13.9,11.3-25.2,25.2-25.2c3.3,0,6.4,0.6,9.3,1.8c-0.3-1.3-0.4-2.7-0.2-4.1
		c-2.9-1-5.9-1.5-9.1-1.5c-16,0-28.9,13-28.9,29c0,7.6,2.9,14.7,8.2,20.2l-2.2,10.6c-0.1,0.7,0.1,1.4,0.7,1.9
		c0.3,0.3,0.7,0.4,1.1,0.4c0.3,0,0.6-0.1,0.9-0.2l10.7-5.5c3.1,1.1,6.3,1.6,9.6,1.6c14.9,0,27.2-11.3,28.8-25.7
		C99,65.7,97.8,65.2,96.7,64.6z"/>
	<path fill="#C5351F" d="M92.3,61c-3.4-2.4-5.3-5.4-6.8-9.2c-0.7-0.7-1.4-1.6-2-2.5c-1.3-1.9-1.7-4.3-1.6-6.6c-0.6-1.3-1-2.6-1.2-4
		l-10.9-3l-10,3.6l-5.9,3.6l-5.3,4L45,67.2l6.9,15l-0.6,6.9v0.5l-0.6,3.6l8.6-4.5l7,1.6l10.7-1.3l11-5.3l6.7-7.6l2.3-11.2
		c-0.7-0.3-1.4-0.7-2-1.1C94,63,93,62.1,92.3,61z"/>
	<path fill="#FFFFFF" d="M72.2,46c-0.4-0.9-1-1.6-2-2c-2.7-1.2-6.6,0.4-6.8,0.4s-4.2,1.5-5.4,4.2c-0.3,0.6-0.4,1.3-0.3,1.9
		c0,0.1,0.1,0.3,0.1,0.4c0,0.1,0,0.1,0.1,0.2c0.1,0.2,0.2,0.5,0.3,0.7c0.1,0.2,0.1,0.4,0.2,0.6c0,0,0,0,0,0c1,2.6,3.4,8.6,6.4,10
		c0.3,0.1,0.5,0.2,0.8,0.3l1,2.6c0.1,0.2,0.2,0.3,0.4,0.2l1.5,0.7l-0.3,2.9c-0.1,0.3,0,0.4,0.1,0.6l2.8,3.4l-0.5,2.3
		c-0.1,0.4,0,0.7,0.3,0.9l2.9,1.8l-0.1,3.7c0,0.3,0.2,0.7,0.5,0.8l3.7,1.1c0.2,0,0.3,0,0.5,0c0.1-0.1,0.3-0.2,0.5-0.2l2-3.2
		c0.1-0.3,0.1-0.7-0.1-0.9l-2.5-2.7l1-3.3c0-0.3-0.1-0.6-0.3-0.9L77,71l-0.2-4.4c-0.1-0.2-0.2-0.4-0.3-0.5l-2.1-2l0.7-1.5
		c0.1-0.2,0.1-0.4,0-0.6l-1-2.6c0.1-0.2,0.3-0.5,0.4-0.7C76.1,55.1,72.7,46.9,72.2,46z M73.6,62.3l-0.8,1.7
		c-0.1,0.4-0.1,0.7,0.2,0.9l2.3,2.1l0.2,4.5c0,0.2,0.1,0.5,0.3,0.6l1.8,1.3l-0.9,3.1c-0.1,0.3,0,0.6,0.2,0.7l2.4,2.6l-1.4,2.3
		l-2.6-0.7l0-3.5c0-0.3-0.1-0.5-0.3-0.7l-2.8-1.7l0.6-2.2c0.1-0.3,0-0.5-0.2-0.7L69.7,69L70,66c0-0.3-0.2-0.7-0.5-0.8l-1.7-0.8
		l-0.7-1.9l2.1-0.8l3.2,8.6c0.2,0.4,0.6,0.6,1,0.4c0.4-0.2,0.6-0.6,0.4-1l-3.2-8.6l2.2-0.8L73.6,62.3z M73.1,58.1
		c-0.2,0.4-0.5,0.7-0.8,0.8l-5.7,2.2c-0.4,0.1-0.8,0.1-1.2,0c-2.5-1.3-5.1-7.8-6-10.2c-0.2-0.6-0.2-1.2,0.1-1.7
		c0.8-1.7,3.4-2.9,4.5-3.3c0,0,0.1,0,0.1-0.1c0.9-0.4,3.9-1.2,5.6-0.5c0.5,0.2,0.9,0.6,1.1,1.2C71.9,48.8,74.2,55.5,73.1,58.1z"/>
	<path fill="#FFFFFF" d="M66.8,47.2l-3.9,1.5c-0.9,0.4-1.4,1.3-1,2.2l0.4,1.1c0.3,0.9,1.3,1.3,2.2,0.9l3.9-1.5
		c0.9-0.3,1.3-1.3,0.9-2.2L69,48.2C68.7,47.3,67.7,46.9,66.8,47.2z M68,49.9c0,0.1,0,0.2-0.1,0.2L64,51.5c-0.1,0.1-0.2,0-0.3-0.1
		l-0.4-1.1c0-0.1,0-0.2,0.2-0.2l3.9-1.5c0.1,0,0.2,0,0.2,0.1L68,49.9z"/>
	<path fill="#454341" d="M100.3,28.8v2.1h13.4v-8.9h-8.5L100.3,28.8z M111.9,23.7V29h-9.6l3.8-5.3H111.9z"/>
	<path fill="#454341" d="M114.5,21.9v8.9h13.4v-2.1l-4.9-6.8H114.5z M116.3,29v-5.3h5.8l3.8,5.3H116.3z"/>
	<path fill="#454341" d="M137.4,29.1l-3.6-0.9c-0.9-0.2-1.4-0.6-2.2-1.4l-4.5-6.3c-1.1-1.5-2.5-2.1-4.3-2.1H106
		c-1.8,0-3.1,0.7-4.3,2.2l-4.4,6.2c-0.8,0.9-1.4,1.3-2.1,1.5l-5.4,0.9c-2.6,0.5-4.3,2.7-4.3,5.3v6.2c0,1.9,1.6,3.6,3.6,3.6h2.7
		c0.4,3,3,5.3,6.2,5.3h42.8v-1.8h-8.1c1-0.9,1.6-2.2,1.8-3.6h3.6c2.2,0,2.7-1.5,2.7-2.7v-8C140.7,31.3,138.9,29.3,137.4,29.1z
		 M97.9,47.8c-2.5,0-4.5-2-4.5-4.5c0-2.5,2-4.5,4.5-4.5c2.5,0,4.5,2,4.5,4.5C102.4,45.8,100.4,47.8,97.9,47.8z M102.3,47.8
		c1-0.9,1.6-2.2,1.8-3.6h18c0.2,1.4,0.9,2.6,1.8,3.6H102.3z M128.2,47.8c-2.5,0-4.5-2-4.5-4.5c0-2.5,2-4.5,4.5-4.5
		c2.5,0,4.5,2,4.5,4.5C132.7,45.8,130.7,47.8,128.2,47.8z M138.9,41.5L138.9,41.5c0,0.8-0.1,0.9-0.9,0.9h-3.6c-0.4-3-3-5.3-6.2-5.3
		c-3.1,0-5.7,2.3-6.2,5.3h-18c-0.4-3-3-5.3-6.2-5.3c-3.1,0-5.7,2.3-6.2,5.3H89c-0.9,0-1.8-0.8-1.8-1.8v-4.5H89V38h1.8v-1.8
		c0-1.1-0.6-1.8-1.8-1.8h-1.8c0-2.2,1.5-3.3,2.8-3.6l5.4-0.9c1.2-0.2,2.1-0.9,3.2-2.1l4.4-6.2c0.8-1,1.6-1.4,2.9-1.4h16.9
		c1.3,0,2,0.4,2.8,1.4l4.5,6.3c0.9,1,1.7,1.7,3.1,2.1l3.6,0.9c0.8,0.1,1.9,1.3,1.9,2.7V41.5L138.9,41.5z"/>
	<rect x="111" y="32.6" fill="#454341" width="2.7" height="1.8"/>
	<path fill="#454341" d="M97.6,40.6c-1.5,0-2.7,1.2-2.7,2.7c0,1.5,1.2,2.7,2.7,2.7c1.5,0,2.7-1.2,2.7-2.7
		C100.3,41.8,99.1,40.6,97.6,40.6z M97.6,44.2c-0.5,0-0.9-0.4-0.9-0.9s0.4-0.9,0.9-0.9c0.5,0,0.9,0.4,0.9,0.9S98.1,44.2,97.6,44.2z"
		/>
	<path fill="#454341" d="M127.9,40.6c-1.5,0-2.7,1.2-2.7,2.7c0,1.5,1.2,2.7,2.7,2.7c1.5,0,2.7-1.2,2.7-2.7
		C130.6,41.8,129.4,40.6,127.9,40.6z M127.9,44.2c-0.5,0-0.9-0.4-0.9-0.9s0.4-0.9,0.9-0.9c0.5,0,0.9,0.4,0.9,0.9
		S128.4,44.2,127.9,44.2z"/>
	<g>
		<path fill="#454341" d="M173.2,39.9l0.6-0.5c0.8-0.5,1.4-0.7,1.7-0.7c0.7,0,1.5,0.7,2.4,2c0.5,0.8,0.8,1.5,0.8,2
			c0,0.5-0.2,0.9-0.5,1.2c-0.3,0.3-0.7,0.6-1.1,0.9c-0.4,0.3-0.8,0.5-1.2,0.7c-0.4,0.2-1.2,0.5-2.4,0.9c-1.2,0.4-2.3,0.6-3.5,0.6
			c-1.1,0-2.2-0.1-3.4-0.4c-1.1-0.3-2.3-0.8-3.5-1.5c-1.2-0.7-2.3-1.5-3.3-2.5c-1-1-1.8-2.3-2.4-3.8c-0.6-1.6-0.9-3.3-0.9-5.1
			c0-1.8,0.3-3.5,0.9-5c0.6-1.5,1.4-2.7,2.3-3.7c0.9-1,2-1.8,3.3-2.4c2.3-1.3,4.6-1.9,6.9-1.9c1.1,0,2.2,0.2,3.4,0.5
			c1.1,0.3,2,0.7,2.6,1l0.8,0.5c0.4,0.3,0.7,0.5,1,0.6c0.6,0.5,0.9,1,0.9,1.7c0,0.6-0.2,1.3-0.7,2c-0.9,1.3-1.7,1.9-2.5,1.9
			c-0.4,0-1-0.3-1.8-0.8c-1-0.8-2.3-1.2-3.9-1.2c-1.5,0-3,0.5-4.5,1.6c-0.7,0.5-1.3,1.2-1.8,2.2c-0.5,0.9-0.7,2-0.7,3.2
			c0,1.2,0.2,2.2,0.7,3.2c0.5,0.9,1.1,1.7,1.8,2.2c1.4,1,2.9,1.5,4.5,1.5c0.7,0,1.4-0.1,2.1-0.3C172.4,40.3,172.9,40.1,173.2,39.9z"
			/>
		<path fill="#454341" d="M180.9,22.5c0-0.5,0-0.9,0.1-1.2c0-0.3,0.1-0.6,0.3-0.9c0.3-0.6,1.2-0.9,2.7-0.9c1.4,0,2.3,0.3,2.7,0.9
			c0.2,0.4,0.3,0.7,0.3,0.9c0,0.3,0.1,0.7,0.1,1.2v16.3c0,0.8,0.1,1.4,0.2,1.6c0.1,0.2,0.5,0.3,0.9,0.3c0.5,0,0.8,0,1,0.1
			c0.2,0,0.4,0.1,0.6,0.3c0.5,0.3,0.7,1.1,0.7,2.5c0,1.5-0.2,2.4-0.7,2.7c-0.6,0.4-2.1,0.5-4.4,0.2c-1.8-0.2-3-0.8-3.5-1.8
			c-0.7-1.1-1-3-1-5.5V22.5z"/>
		<path fill="#454341" d="M209.9,35.2c0,1.4-0.4,2.5-1.1,3.2c-0.7,0.7-1.5,1-2.4,1h-8.3c0,0.7,0.4,1.2,1.2,1.7
			c0.8,0.4,1.5,0.7,2.3,0.7c1.4,0,2.4-0.1,3.2-0.4l0.4-0.1c0.6-0.3,1-0.4,1.4-0.4c0.7,0,1.4,0.5,1.9,1.6c0.3,0.6,0.5,1.2,0.5,1.6
			c0,2.1-2.5,3.1-7.5,3.1c-1.7,0-3.3-0.3-4.6-0.9c-1.3-0.6-2.4-1.4-3.1-2.4c-1.5-1.9-2.2-4-2.2-6.4c0-3,1-5.3,2.9-7.1
			c1.9-1.8,4.3-2.7,7.2-2.7c3.3,0,5.6,1.1,7.2,3.4C209.5,32.4,209.9,33.7,209.9,35.2z M202.5,36.2c0.9,0,1.3-0.4,1.3-1.1
			c0-0.5-0.2-1-0.6-1.3c-0.4-0.3-1-0.5-1.8-0.5s-1.5,0.3-2.3,0.9c-0.8,0.6-1.1,1.3-1.1,2H202.5z"/>
		<path fill="#454341" d="M222.7,28.1c1.6,0,2.6,0.4,2.8,1.3c0.1,0.4,0.2,1,0.2,1.8c0,0.7-0.1,1.3-0.2,1.7c-0.2,0.4-0.4,0.7-0.7,0.9
			c-0.5,0.3-1.2,0.4-2.1,0.4l-2.3-0.1v9.4c0,0.9-0.1,1.6-0.3,2c-0.2,0.4-0.6,0.7-1,0.9c-0.5,0.1-1,0.2-1.8,0.2
			c-0.7,0-1.3-0.1-1.7-0.2c-0.4-0.2-0.7-0.4-0.9-0.7c-0.2-0.3-0.3-0.6-0.3-0.9c0-0.3-0.1-0.7-0.1-1.2v-9.3h-1.3
			c-0.6,0-1-0.2-1.3-0.4c-0.4-0.4-0.7-1.3-0.7-2.6c0-1.9,0.7-2.9,2.1-2.9h1.2v-1.9c0-1.8,0.6-3.4,1.9-4.9c1.3-1.5,3.2-2.2,5.6-2.2
			c0.5,0,0.9,0,1.2,0.1c0.3,0,0.6,0.1,0.9,0.3c0.6,0.3,0.9,1.2,0.9,2.7c0,1.1-0.2,1.9-0.6,2.4c-0.3,0.4-0.8,0.6-1.5,0.6
			c-0.2,0-0.5,0-1,0c-0.9,0-1.3,0.3-1.3,0.9v1.9L222.7,28.1z"/>
		<path fill="#454341" d="M238,41.7h-8.4c-1.3,0-2.1-0.4-2.4-1.2c-0.1-0.4-0.2-1-0.2-1.6c0-0.7,0.1-1.2,0.2-1.6
			c0.1-0.4,0.4-0.7,0.7-0.8c0.4-0.2,1-0.3,1.7-0.3h8.4c1.3,0,2.1,0.4,2.3,1.2c0.1,0.4,0.2,1,0.2,1.6c0,0.7-0.1,1.2-0.2,1.6
			c-0.1,0.4-0.3,0.7-0.6,0.9C239.4,41.6,238.8,41.7,238,41.7z"/>
		<path fill="#454341" d="M266.4,21.3c1.4,0.7,2.1,1.4,2.1,2.2c0,0.4-0.2,0.9-0.5,1.7l-9.7,19.7c-0.3,0.5-0.7,0.9-1.2,1.2
			c-0.5,0.3-1.1,0.5-1.6,0.5h-0.4c-0.6,0-1.1-0.2-1.7-0.5c-0.5-0.3-0.9-0.7-1.2-1.2l-9.7-19.7c-0.4-0.7-0.5-1.3-0.5-1.7
			c0-0.8,0.7-1.6,2.1-2.2c0.8-0.4,1.4-0.6,1.8-0.6c0.4,0,0.7,0,0.9,0.1c0.2,0.1,0.4,0.3,0.6,0.5c0.2,0.3,0.4,0.6,0.6,0.9
			c0.2,0.3,0.6,1.3,1.4,2.9c0.7,1.6,1.5,3.3,2.3,5.1c0.8,1.8,1.6,3.5,2.4,5.1c0.7,1.6,1.2,2.5,1.2,2.7l7-15.4
			c0.2-0.4,0.4-0.8,0.5-1.1c0.4-0.6,0.9-0.9,1.5-0.9S265.6,20.9,266.4,21.3z"/>
		<path fill="#454341" d="M269.3,30.4c2-1.8,4.2-2.7,6.7-2.7c2.5,0,4.8,0.9,6.7,2.7c1.9,1.8,2.9,4.1,2.9,6.9c0,1.9-0.5,3.7-1.5,5.2
			c-1,1.5-2.2,2.6-3.7,3.3c-1.4,0.7-2.9,1.1-4.5,1.1c-1.5,0-3-0.4-4.5-1.1c-1.5-0.8-2.7-1.9-3.7-3.4c-1-1.5-1.5-3.2-1.5-5
			C266.4,34.6,267.4,32.3,269.3,30.4z M273.7,39.9c0.7,0.6,1.5,0.9,2.3,0.9c0.8,0,1.5-0.3,2.3-0.9c0.8-0.6,1.2-1.5,1.2-2.6
			c0-1.1-0.4-2-1.1-2.6c-0.7-0.6-1.5-0.8-2.4-0.8c-0.8,0-1.6,0.3-2.4,0.9c-0.7,0.6-1.1,1.4-1.1,2.6C272.6,38.5,273,39.3,273.7,39.9z
			"/>
		<path fill="#454341" d="M293.8,24.7c-0.2,0.3-0.5,0.6-0.9,0.7c-0.4,0.1-1,0.2-1.8,0.2c-0.7,0-1.3-0.1-1.8-0.2
			c-0.4-0.1-0.8-0.4-0.9-0.7c-0.2-0.4-0.3-0.7-0.3-0.9c0-0.3-0.1-0.7-0.1-1.2c0-0.5,0-0.9,0.1-1.2c0-0.3,0.1-0.6,0.3-0.9
			c0.3-0.6,1.2-0.9,2.7-0.9c1.5,0,2.4,0.3,2.7,0.9c0.2,0.4,0.3,0.7,0.3,0.9c0,0.3,0.1,0.7,0.1,1.2c0,0.5,0,0.9-0.1,1.2
			C294,24,293.9,24.3,293.8,24.7z M288,31.2c0-0.5,0-0.9,0.1-1.2c0-0.3,0.1-0.6,0.3-0.9c0.3-0.6,1.2-0.9,2.7-0.9
			c1.1,0,1.9,0.2,2.4,0.6c0.4,0.3,0.6,0.8,0.6,1.5c0,0.2,0,0.6,0,1v12.3c0,0.5,0,0.9-0.1,1.2c0,0.3-0.1,0.6-0.3,0.9
			c-0.3,0.6-1.2,0.9-2.7,0.9c-1.5,0-2.4-0.3-2.7-0.9c-0.2-0.4-0.3-0.7-0.3-0.9c0-0.3-0.1-0.7-0.1-1.2V31.2z"/>
		<path fill="#454341" d="M307.7,34.3l-2.3-0.1V39c0,0.6,0.1,1.1,0.3,1.4c0.2,0.3,0.6,0.4,1.1,0.4s1,0,1.3,0.1
			c0.3,0,0.6,0.1,0.9,0.3c0.5,0.3,0.8,1.1,0.8,2.4c0,1.5-0.3,2.4-1,2.7c-0.4,0.2-0.7,0.3-0.9,0.3c-0.3,0-0.7,0.1-1.2,0.1
			c-2.4,0-4.3-0.6-5.6-1.7c-1.3-1.1-1.9-3-1.9-5.6v-5.2c-0.4,0.1-0.9,0.1-1.4,0.1c-0.5,0-0.9-0.2-1.3-0.6c-0.3-0.4-0.5-1.1-0.5-2
			c0-1,0.1-1.7,0.2-2.1c0.1-0.4,0.3-0.7,0.5-0.9c0.4-0.3,0.8-0.5,1.4-0.5l1.2,0.1v-3.6c0-0.5,0-0.9,0.1-1.2c0-0.3,0.1-0.5,0.3-0.8
			c0.3-0.6,1.2-0.9,2.7-0.9c1.6,0,2.5,0.4,2.8,1.3c0.1,0.4,0.2,1,0.2,1.8v3.4c1-0.1,1.8-0.1,2.3-0.1c0.5,0,0.9,0,1.2,0.1
			c0.3,0,0.6,0.1,0.9,0.3c0.6,0.3,0.9,1.2,0.9,2.7c0,1.5-0.3,2.4-0.9,2.7c-0.4,0.2-0.7,0.3-0.9,0.3
			C308.6,34.3,308.2,34.3,307.7,34.3z"/>
		<path fill="#454341" d="M321,46.6c-2.4,0-4.3-0.9-5.9-2.7c-1.6-1.8-2.3-4-2.3-6.6v-6.2c0-0.6,0-1,0.1-1.2c0-0.3,0.1-0.6,0.3-0.9
			c0.3-0.6,1.2-0.9,2.7-0.9c1.6,0,2.6,0.4,2.9,1.3c0.1,0.4,0.2,1,0.2,1.8v6.2c0,1,0.3,1.7,0.8,2.2c0.5,0.5,1.3,0.8,2.2,0.8
			c0.9,0,1.7-0.3,2.3-0.8c0.6-0.6,0.9-1.3,0.9-2.2v-6.2c0-0.5,0-0.9,0.1-1.2c0-0.3,0.1-0.6,0.3-0.9c0.3-0.6,1.2-0.9,2.7-0.9
			c1.5,0,2.4,0.3,2.7,0.9c0.2,0.4,0.3,0.7,0.3,0.9c0,0.3,0.1,0.7,0.1,1.2v12.4c0,0.5,0,0.9-0.1,1.2c0,0.3-0.1,0.6-0.3,0.9
			c-0.4,0.6-1.3,0.9-2.7,0.9c-1.4,0-2.3-0.3-2.6-0.8c-0.2-0.4-0.4-0.9-0.4-1.4c-0.1,0.2-0.3,0.4-0.6,0.7c-0.3,0.3-0.6,0.6-0.9,0.8
			C322.8,46.3,321.9,46.6,321,46.6z"/>
		<path fill="#454341" d="M346.6,28.3c0.4,0.1,0.8,0.4,1.1,0.7c0.3,0.3,0.4,0.9,0.4,1.6c0,0.8-0.2,1.6-0.7,2.5
			c-0.4,0.9-1.1,1.3-1.9,1.3c-0.4,0-0.8-0.1-1.2-0.3c-0.4-0.2-0.9-0.3-1.5-0.3c-0.6,0-1.2,0.2-1.8,0.7c-0.6,0.4-0.8,1-0.8,1.6v7.4
			c0,0.5,0,0.9-0.1,1.2c0,0.3-0.1,0.6-0.3,0.9c-0.4,0.6-1.3,0.9-2.7,0.9c-1.1,0-1.9-0.2-2.4-0.6c-0.4-0.3-0.6-0.8-0.6-1.5
			c0-0.2,0-0.6,0-1V31.2c0-0.5,0-0.9,0.1-1.2c0-0.3,0.1-0.6,0.3-0.9c0.3-0.6,1.2-0.9,2.7-0.9c1.4,0,2.3,0.3,2.6,0.8
			c0.3,0.4,0.4,0.8,0.4,1.2c0.1-0.2,0.3-0.4,0.5-0.6c0.2-0.2,0.7-0.6,1.4-0.9c0.7-0.4,1.4-0.6,1.9-0.6c0.6,0,1,0,1.4,0.1
			C345.8,28.1,346.2,28.2,346.6,28.3z"/>
		<path fill="#454341" d="M366.9,35.2c0,1.4-0.4,2.5-1.1,3.2c-0.7,0.7-1.5,1-2.4,1h-8.3c0,0.7,0.4,1.2,1.2,1.7
			c0.8,0.4,1.5,0.7,2.3,0.7c1.4,0,2.4-0.1,3.2-0.4l0.4-0.1c0.6-0.3,1-0.4,1.4-0.4c0.7,0,1.4,0.5,1.9,1.6c0.3,0.6,0.5,1.2,0.5,1.6
			c0,2.1-2.5,3.1-7.5,3.1c-1.7,0-3.3-0.3-4.6-0.9c-1.3-0.6-2.4-1.4-3.1-2.4c-1.5-1.9-2.2-4-2.2-6.4c0-3,1-5.3,2.9-7.1
			c1.9-1.8,4.3-2.7,7.2-2.7c3.3,0,5.6,1.1,7.2,3.4C366.5,32.4,366.9,33.7,366.9,35.2z M359.5,36.2c0.9,0,1.3-0.4,1.3-1.1
			c0-0.5-0.2-1-0.6-1.3c-0.4-0.3-1-0.5-1.8-0.5c-0.8,0-1.5,0.3-2.3,0.9c-0.8,0.6-1.1,1.3-1.1,2H359.5z"/>
	</g>
	<g>
		<path fill="#C5351F" d="M158.9,53.3l19.1,0c0.7,0,1.3,0.1,1.6,0.3c0.3,0.2,0.6,0.4,0.7,0.8c0.1,0.4,0.2,0.8,0.2,1.4
			c0,0.6-0.1,1.1-0.2,1.4c-0.1,0.4-0.3,0.6-0.6,0.7c-0.4,0.2-1,0.3-1.8,0.3l-6.6,0l0,17.3c0,0.5,0,0.9-0.1,1.2
			c0,0.3-0.1,0.5-0.3,0.9c-0.2,0.3-0.5,0.6-0.9,0.7c-0.4,0.1-1,0.2-1.7,0.2c-0.7,0-1.3-0.1-1.7-0.2c-0.4-0.1-0.7-0.4-0.9-0.7
			c-0.2-0.3-0.3-0.6-0.3-0.9c0-0.3-0.1-0.7-0.1-1.2l0-17.2l-6.6,0c-0.7,0-1.3-0.1-1.6-0.3c-0.3-0.2-0.6-0.4-0.7-0.8
			c-0.1-0.4-0.2-0.8-0.2-1.4c0-0.6,0.1-1.1,0.2-1.4c0.1-0.4,0.3-0.6,0.6-0.7C157.5,53.4,158.1,53.3,158.9,53.3z"/>
		<path fill="#C5351F" d="M195.5,53c3.4,0,6.3,1.2,8.8,3.7c2.5,2.4,3.7,5.5,3.7,9.1c0,3.6-1.2,6.7-3.6,9.3c-2.4,2.6-5.3,3.8-8.8,3.8
			c-3.5,0-6.4-1.3-8.9-3.8c-2.4-2.5-3.7-5.5-3.7-9c0-1.9,0.3-3.7,1-5.3c0.7-1.7,1.6-3,2.7-4.2c1.1-1.1,2.5-2,3.9-2.6
			C192.4,53.3,193.9,53,195.5,53z M189.3,66c0,2,0.7,3.7,2,5c1.3,1.3,2.8,1.9,4.4,1.9c1.6,0,3.1-0.6,4.4-1.9c1.3-1.2,2-2.9,2-5
			c0-2.1-0.7-3.8-2-5c-1.3-1.3-2.8-1.9-4.4-1.9s-3.1,0.6-4.4,1.9C189.9,62.3,189.3,63.9,189.3,66z"/>
		<path fill="#C5351F" d="M230.2,54.2c0.2-0.4,0.6-0.6,1-0.8c0.4-0.1,1-0.2,1.6-0.2c0.7,0,1.2,0.1,1.6,0.2c0.4,0.1,0.7,0.3,0.9,0.4
			c0.2,0.2,0.4,0.4,0.4,0.7c0.1,0.4,0.2,1,0.2,1.8l0,10.4c0,3-0.9,5.8-2.8,8.2c-0.9,1.2-2.1,2.1-3.5,2.8c-1.4,0.7-3,1.1-4.8,1.1
			c-1.8,0-3.3-0.4-4.8-1.1c-1.4-0.7-2.6-1.7-3.5-2.9c-1.9-2.4-2.8-5.2-2.8-8.2l0-10.3c0-0.5,0-1,0.1-1.2c0-0.3,0.1-0.6,0.3-0.9
			c0.2-0.3,0.5-0.6,0.9-0.7c0.4-0.1,1-0.2,1.8-0.2c0.7,0,1.3,0.1,1.8,0.2c0.4,0.1,0.7,0.4,0.9,0.7c0.3,0.5,0.4,1.2,0.4,2.2l0,10.3
			c0,1.4,0.3,2.7,1,4c0.3,0.6,0.9,1.2,1.5,1.5c0.7,0.4,1.5,0.6,2.4,0.6c1.7,0,2.9-0.6,3.7-1.9c0.8-1.2,1.2-2.7,1.2-4.3l0-10.5
			C229.8,55.2,229.9,54.6,230.2,54.2z"/>
		<path fill="#C5351F" d="M248.2,73.4l9.3,0c0.8,0,1.3,0.1,1.6,0.3c0.3,0.2,0.6,0.4,0.7,0.8c0.1,0.4,0.2,0.9,0.2,1.5
			s-0.1,1.1-0.2,1.5c-0.1,0.4-0.3,0.6-0.6,0.8c-0.4,0.2-1,0.3-1.8,0.3l-12.4,0c-1.6,0-2.5-0.4-2.8-1.3c-0.1-0.4-0.2-0.9-0.2-1.8
			l0-19.1c0-0.5,0-0.9,0.1-1.2c0-0.3,0.1-0.6,0.3-0.9c0.3-0.6,1.2-0.9,2.7-0.9c1.6,0,2.6,0.4,2.9,1.3c0.1,0.4,0.2,1,0.2,1.8
			L248.2,73.4z"/>
		<path fill="#C5351F" d="M277.5,53c3.4,0,6.3,1.2,8.8,3.7c2.5,2.4,3.7,5.5,3.7,9.1c0,3.6-1.2,6.7-3.6,9.3c-2.4,2.6-5.3,3.8-8.8,3.8
			c-3.5,0-6.4-1.3-8.9-3.8s-3.7-5.5-3.7-9c0-1.9,0.3-3.7,1-5.3c0.7-1.7,1.6-3,2.7-4.2c1.1-1.1,2.5-2,3.9-2.6
			C274.4,53.3,275.9,53,277.5,53z M271.2,65.9c0,2,0.7,3.7,2,5c1.3,1.3,2.8,1.9,4.4,1.9c1.6,0,3.1-0.6,4.4-1.9c1.3-1.2,2-2.9,2-5
			c0-2.1-0.7-3.8-2-5c-1.3-1.3-2.8-1.9-4.4-1.9s-3.1,0.6-4.4,1.9C271.9,62.2,271.2,63.9,271.2,65.9z"/>
		<path fill="#C5351F" d="M312.1,54.2c0.2-0.4,0.6-0.6,1-0.8c0.4-0.1,1-0.2,1.6-0.2c0.7,0,1.2,0.1,1.6,0.2c0.4,0.1,0.7,0.3,0.9,0.4
			c0.2,0.2,0.4,0.4,0.4,0.7c0.1,0.4,0.2,1,0.2,1.8l0,10.4c0,3-0.9,5.8-2.8,8.2c-0.9,1.2-2.1,2.1-3.5,2.8c-1.4,0.7-3,1.1-4.8,1.1
			c-1.8,0-3.3-0.4-4.8-1.1c-1.4-0.7-2.6-1.7-3.5-2.9c-1.9-2.4-2.8-5.2-2.8-8.2l0-10.3c0-0.5,0-1,0.1-1.2c0-0.3,0.1-0.6,0.3-0.9
			c0.2-0.3,0.5-0.6,0.9-0.7c0.4-0.1,1-0.2,1.8-0.2s1.3,0.1,1.8,0.2c0.4,0.1,0.7,0.4,0.9,0.7c0.3,0.5,0.4,1.2,0.4,2.2l0,10.3
			c0,1.4,0.3,2.7,1,4c0.3,0.6,0.9,1.2,1.5,1.5c0.7,0.4,1.5,0.6,2.4,0.6c1.7,0,2.9-0.6,3.7-1.9c0.8-1.2,1.2-2.7,1.2-4.3l0-10.5
			C311.8,55.2,311.9,54.6,312.1,54.2z"/>
		<path fill="#C5351F" d="M323.4,74.9c-0.6-0.7-0.9-1.4-0.9-2s0.5-1.4,1.5-2.3c0.6-0.5,1.2-0.8,1.8-0.8s1.5,0.6,2.7,1.7
			c0.3,0.4,0.8,0.8,1.4,1.1c0.6,0.4,1.1,0.5,1.6,0.5c2.1,0,3.2-0.9,3.2-2.6c0-0.5-0.3-1-0.9-1.3c-0.6-0.4-1.3-0.6-2.2-0.8
			c-0.9-0.2-1.8-0.4-2.8-0.8c-1-0.4-1.9-0.8-2.8-1.3c-0.9-0.5-1.6-1.2-2.2-2.3c-0.6-1-0.9-2.3-0.9-3.8c0-2,0.7-3.8,2.2-5.3
			c1.5-1.5,3.5-2.2,6.1-2.3c1.4,0,2.6,0.2,3.8,0.5c1.1,0.4,1.9,0.7,2.4,1.1l0.9,0.7c0.7,0.7,1.1,1.2,1.1,1.7c0,0.5-0.3,1.1-0.8,1.9
			c-0.8,1.1-1.6,1.7-2.4,1.7c-0.5,0-1.1-0.2-1.8-0.7c-0.1,0-0.2-0.2-0.4-0.3c-0.2-0.2-0.4-0.3-0.5-0.4c-0.5-0.3-1.1-0.4-1.8-0.4
			c-0.7,0-1.4,0.2-1.9,0.5c-0.5,0.4-0.7,0.8-0.7,1.5c0,0.6,0.3,1.1,0.9,1.5c0.6,0.4,1.3,0.7,2.2,0.8c0.9,0.1,1.8,0.3,2.8,0.6
			c1,0.3,2,0.6,2.8,1c0.9,0.4,1.6,1.1,2.2,2.1c0.6,1,0.9,2.3,0.9,3.8c0,1.5-0.3,2.8-0.9,3.9c-0.6,1.1-1.4,2-2.3,2.6
			c-1.9,1.2-3.8,1.8-5.9,1.8c-1.1,0-2.1-0.1-3.1-0.4c-1-0.3-1.7-0.6-2.3-1c-1.2-0.7-2.1-1.4-2.5-2.1L323.4,74.9z"/>
		<path fill="#C5351F" d="M352.5,72.4l10.6,0c0.5,0,0.9,0,1.2,0.1c0.3,0,0.6,0.1,0.9,0.3c0.6,0.3,0.9,1.2,0.9,2.7
			c0,1.6-0.4,2.5-1.3,2.8c-0.4,0.1-1,0.2-1.8,0.2l-13.6,0c-1.6,0-2.5-0.4-2.8-1.3c-0.1-0.4-0.2-0.9-0.2-1.8l0-19.1
			c0-1.2,0.2-2,0.7-2.4c0.4-0.4,1.3-0.6,2.5-0.6l13.5,0c0.5,0,0.9,0,1.2,0.1c0.3,0,0.6,0.1,0.9,0.3c0.6,0.3,0.9,1.2,0.9,2.7
			c0,1.6-0.4,2.5-1.3,2.8c-0.4,0.1-1,0.2-1.8,0.2l-10.5,0l0,3.5l6.8,0c0.5,0,0.9,0,1.2,0.1c0.3,0,0.6,0.1,0.9,0.3
			c0.6,0.3,0.9,1.2,0.9,2.7c0,1.6-0.4,2.5-1.3,2.8c-0.4,0.1-1,0.2-1.8,0.2l-6.7,0L352.5,72.4z"/>
	</g>
	<g>
		<path fill="#454341" d="M169,93.1c0.1,0.2,0.1,0.3,0.1,0.4c0,0.2-0.1,0.3-0.4,0.4c-0.1,0.1-0.3,0.1-0.4,0.1s-0.2,0-0.2-0.1
			c-0.1,0-0.1-0.1-0.1-0.1c0-0.1-0.2-0.5-0.5-1.3l-0.2,0h-0.9v0.8c0,0.1,0,0.2,0,0.2c0,0.1,0,0.1-0.1,0.2c-0.1,0.1-0.2,0.2-0.5,0.2
			c-0.3,0-0.5-0.1-0.6-0.3c0-0.1,0-0.2,0-0.4v-3.9c0-0.1,0-0.2,0-0.2c0-0.1,0-0.1,0.1-0.2c0.1-0.1,0.2-0.2,0.5-0.2h1.5
			c0.4,0,0.8,0.1,1.2,0.4c0.2,0.1,0.3,0.3,0.5,0.6c0.1,0.2,0.2,0.5,0.2,0.8c0,0.5-0.2,1-0.5,1.3C168.7,92.3,168.8,92.6,169,93.1z
			 M166.3,91.3h0.9c0.1,0,0.3-0.1,0.4-0.2c0.1-0.1,0.2-0.3,0.2-0.5c0-0.2-0.1-0.4-0.2-0.5c-0.1-0.1-0.3-0.2-0.4-0.2h-0.9V91.3z"/>
		<path fill="#454341" d="M173.7,92.8h2.2c0.1,0,0.2,0,0.2,0c0.1,0,0.1,0,0.2,0.1c0.1,0.1,0.2,0.2,0.2,0.5c0,0.3-0.1,0.5-0.3,0.6
			c-0.1,0-0.2,0-0.4,0h-2.8c-0.3,0-0.5-0.1-0.6-0.3c0-0.1,0-0.2,0-0.4v-3.9c0-0.2,0-0.4,0.1-0.5c0.1-0.1,0.3-0.1,0.5-0.1h2.8
			c0.1,0,0.2,0,0.2,0c0.1,0,0.1,0,0.2,0.1c0.1,0.1,0.2,0.2,0.2,0.5c0,0.3-0.1,0.5-0.3,0.6c-0.1,0-0.2,0-0.4,0h-2.1v0.7h1.4
			c0.1,0,0.2,0,0.2,0c0.1,0,0.1,0,0.2,0.1c0.1,0.1,0.2,0.2,0.2,0.5c0,0.3-0.1,0.5-0.3,0.6c-0.1,0-0.2,0-0.4,0h-1.4V92.8z"/>
		<path fill="#454341" d="M183.6,89.9c0.1,0.2,0.2,0.5,0.2,0.8c0,0.3-0.1,0.6-0.2,0.8c-0.1,0.2-0.3,0.4-0.5,0.6
			c-0.4,0.3-0.8,0.4-1.2,0.4h-0.9v0.8c0,0.1,0,0.2,0,0.2c0,0.1,0,0.1-0.1,0.2c-0.1,0.1-0.2,0.2-0.5,0.2c-0.3,0-0.5-0.1-0.6-0.3
			c0-0.1,0-0.2,0-0.4v-3.9c0-0.1,0-0.2,0-0.2c0-0.1,0-0.1,0.1-0.2c0.1-0.1,0.2-0.2,0.5-0.2h1.5c0.4,0,0.8,0.1,1.2,0.4
			C183.4,89.5,183.5,89.7,183.6,89.9z M182.4,91.2c0.1-0.1,0.2-0.3,0.2-0.5c0-0.2-0.1-0.4-0.2-0.5c-0.1-0.1-0.3-0.2-0.4-0.2h-0.9
			v1.2h0.9C182.1,91.3,182.2,91.3,182.4,91.2z"/>
		<path fill="#454341" d="M191.1,93.1c0.1,0.2,0.1,0.3,0.1,0.4c0,0.2-0.1,0.3-0.4,0.4c-0.1,0.1-0.3,0.1-0.4,0.1
			c-0.1,0-0.2,0-0.2-0.1c-0.1,0-0.1-0.1-0.1-0.1c0-0.1-0.2-0.5-0.5-1.3l-0.2,0h-0.9v0.8c0,0.1,0,0.2,0,0.2c0,0.1,0,0.1-0.1,0.2
			c-0.1,0.1-0.2,0.2-0.5,0.2c-0.3,0-0.5-0.1-0.6-0.3c0-0.1,0-0.2,0-0.4v-3.9c0-0.1,0-0.2,0-0.2c0-0.1,0-0.1,0.1-0.2
			c0.1-0.1,0.2-0.2,0.5-0.2h1.5c0.4,0,0.8,0.1,1.2,0.4c0.2,0.1,0.3,0.3,0.5,0.6c0.1,0.2,0.2,0.5,0.2,0.8c0,0.5-0.2,1-0.5,1.3
			C190.8,92.3,190.9,92.6,191.1,93.1z M188.4,91.3h0.9c0.1,0,0.3-0.1,0.4-0.2c0.1-0.1,0.2-0.3,0.2-0.5c0-0.2-0.1-0.4-0.2-0.5
			c-0.1-0.1-0.3-0.2-0.4-0.2h-0.9V91.3z"/>
		<path fill="#454341" d="M196.9,88.8c0.7,0,1.3,0.3,1.8,0.7c0.5,0.5,0.8,1.1,0.8,1.9c0,0.7-0.2,1.4-0.7,1.9
			c-0.5,0.5-1.1,0.8-1.8,0.8c-0.7,0-1.3-0.3-1.8-0.8s-0.7-1.1-0.7-1.8c0-0.4,0.1-0.7,0.2-1.1c0.1-0.3,0.3-0.6,0.6-0.8
			c0.2-0.2,0.5-0.4,0.8-0.5C196.3,88.9,196.6,88.8,196.9,88.8z M195.6,91.4c0,0.4,0.1,0.8,0.4,1c0.3,0.3,0.6,0.4,0.9,0.4
			s0.6-0.1,0.9-0.4c0.3-0.3,0.4-0.6,0.4-1c0-0.4-0.1-0.8-0.4-1c-0.3-0.3-0.6-0.4-0.9-0.4c-0.3,0-0.6,0.1-0.9,0.4
			C195.7,90.7,195.6,91,195.6,91.4z"/>
		<path fill="#454341" d="M203.5,88.9l1.3,0c0.7,0,1.3,0.2,1.8,0.7c0.5,0.5,0.8,1.1,0.8,1.8c0,0.7-0.3,1.3-0.8,1.8
			c-0.5,0.5-1.1,0.8-1.8,0.8h-1.3c-0.3,0-0.5-0.1-0.5-0.2c-0.1-0.1-0.1-0.2-0.1-0.4v-3.9c0-0.1,0-0.2,0-0.2c0-0.1,0-0.1,0.1-0.2
			C203,88.9,203.2,88.9,203.5,88.9z M205.7,92.4c0.3-0.2,0.4-0.6,0.4-0.9c0-0.4-0.1-0.7-0.4-0.9c-0.3-0.3-0.6-0.4-0.9-0.4h-0.7v2.6
			h0.7C205.1,92.8,205.4,92.6,205.7,92.4z"/>
		<path fill="#454341" d="M214,89.1c0-0.1,0.1-0.1,0.2-0.2c0.1,0,0.2,0,0.3,0c0.1,0,0.2,0,0.3,0c0.1,0,0.1,0.1,0.2,0.1
			c0,0,0.1,0.1,0.1,0.1c0,0.1,0,0.2,0,0.4v2.1c0,0.6-0.2,1.2-0.6,1.7c-0.2,0.2-0.4,0.4-0.7,0.6c-0.3,0.1-0.6,0.2-1,0.2
			c-0.4,0-0.7-0.1-1-0.2c-0.3-0.1-0.5-0.3-0.7-0.6c-0.4-0.5-0.6-1.1-0.6-1.7v-2.1c0-0.1,0-0.2,0-0.2c0-0.1,0-0.1,0.1-0.2
			c0-0.1,0.1-0.1,0.2-0.1c0.1,0,0.2,0,0.4,0c0.1,0,0.3,0,0.4,0c0.1,0,0.1,0.1,0.2,0.1c0.1,0.1,0.1,0.3,0.1,0.4v2.1
			c0,0.3,0.1,0.6,0.2,0.8c0.1,0.1,0.2,0.2,0.3,0.3c0.1,0.1,0.3,0.1,0.5,0.1c0.3,0,0.6-0.1,0.8-0.4c0.2-0.3,0.3-0.5,0.3-0.9v-2.1
			C214,89.3,214,89.1,214,89.1z"/>
		<path fill="#454341" d="M221.9,92.7l0.1-0.1c0.2-0.1,0.3-0.1,0.3-0.1c0.1,0,0.3,0.1,0.5,0.4c0.1,0.2,0.2,0.3,0.2,0.4
			c0,0.1,0,0.2-0.1,0.2c-0.1,0.1-0.1,0.1-0.2,0.2c-0.1,0.1-0.2,0.1-0.2,0.1c-0.1,0-0.2,0.1-0.5,0.2c-0.2,0.1-0.5,0.1-0.7,0.1
			c-0.2,0-0.4,0-0.7-0.1c-0.2-0.1-0.5-0.2-0.7-0.3c-0.2-0.1-0.5-0.3-0.6-0.5c-0.2-0.2-0.3-0.5-0.5-0.8c-0.1-0.3-0.2-0.6-0.2-1
			c0-0.4,0.1-0.7,0.2-1c0.1-0.3,0.3-0.5,0.5-0.7c0.2-0.2,0.4-0.4,0.6-0.5c0.5-0.3,0.9-0.4,1.4-0.4c0.2,0,0.4,0,0.7,0.1
			c0.2,0.1,0.4,0.1,0.5,0.2l0.2,0.1c0.1,0.1,0.1,0.1,0.2,0.1c0.1,0.1,0.2,0.2,0.2,0.3c0,0.1,0,0.3-0.1,0.4c-0.2,0.3-0.3,0.4-0.5,0.4
			c-0.1,0-0.2-0.1-0.4-0.2c-0.2-0.2-0.5-0.2-0.8-0.2c-0.3,0-0.6,0.1-0.9,0.3c-0.1,0.1-0.3,0.2-0.3,0.4c-0.1,0.2-0.1,0.4-0.1,0.6
			c0,0.2,0,0.4,0.1,0.6c0.1,0.2,0.2,0.3,0.4,0.4c0.3,0.2,0.6,0.3,0.9,0.3c0.1,0,0.3,0,0.4-0.1C221.8,92.7,221.8,92.7,221.9,92.7z"/>
		<path fill="#454341" d="M226.7,88.9h3.9c0.1,0,0.3,0,0.3,0.1c0.1,0,0.1,0.1,0.1,0.2c0,0.1,0,0.2,0,0.3s0,0.2,0,0.3
			c0,0.1-0.1,0.1-0.1,0.2c-0.1,0-0.2,0.1-0.4,0.1h-1.3v3.5c0,0.1,0,0.2,0,0.2c0,0.1,0,0.1-0.1,0.2c0,0.1-0.1,0.1-0.2,0.1
			c-0.1,0-0.2,0-0.3,0c-0.1,0-0.3,0-0.3,0c-0.1,0-0.1-0.1-0.2-0.1c0-0.1-0.1-0.1-0.1-0.2c0-0.1,0-0.1,0-0.2v-3.5h-1.3
			c-0.1,0-0.3,0-0.3-0.1c-0.1,0-0.1-0.1-0.1-0.2c0-0.1,0-0.2,0-0.3c0-0.1,0-0.2,0-0.3c0-0.1,0.1-0.1,0.1-0.2
			C226.4,88.9,226.6,88.9,226.7,88.9z"/>
		<path fill="#454341" d="M234.4,89.5c0-0.1,0-0.2,0-0.2c0-0.1,0-0.1,0.1-0.2c0.1-0.1,0.2-0.2,0.5-0.2c0.3,0,0.5,0.1,0.6,0.3
			c0,0.1,0,0.2,0,0.4v3.9c0,0.1,0,0.2,0,0.2c0,0.1,0,0.1-0.1,0.2c-0.1,0.1-0.2,0.2-0.5,0.2c-0.3,0-0.5-0.1-0.6-0.3
			c0-0.1,0-0.2,0-0.4V89.5z"/>
		<path fill="#454341" d="M241.6,88.8c0.7,0,1.3,0.3,1.8,0.7c0.5,0.5,0.8,1.1,0.8,1.9c0,0.7-0.2,1.4-0.7,1.9
			c-0.5,0.5-1.1,0.8-1.8,0.8c-0.7,0-1.3-0.3-1.8-0.8c-0.5-0.5-0.7-1.1-0.7-1.8c0-0.4,0.1-0.7,0.2-1.1c0.1-0.3,0.3-0.6,0.6-0.8
			c0.2-0.2,0.5-0.4,0.8-0.5C240.9,88.9,241.2,88.8,241.6,88.8z M240.3,91.4c0,0.4,0.1,0.8,0.4,1c0.3,0.3,0.6,0.4,0.9,0.4
			c0.3,0,0.6-0.1,0.9-0.4c0.3-0.3,0.4-0.6,0.4-1c0-0.4-0.1-0.8-0.4-1c-0.3-0.3-0.6-0.4-0.9-0.4s-0.6,0.1-0.9,0.4
			C240.4,90.7,240.3,91,240.3,91.4z"/>
		<path fill="#454341" d="M250.8,89.1c0-0.1,0.1-0.1,0.2-0.2c0.1,0,0.2,0,0.3,0s0.2,0,0.3,0c0.1,0,0.1,0.1,0.2,0.1
			c0,0,0.1,0.1,0.1,0.1c0,0.1,0,0.2,0,0.4v3.9c0,0.1,0,0.2,0,0.2c0,0.1,0,0.1-0.1,0.2c-0.1,0.1-0.2,0.2-0.5,0.2c-0.2,0-0.3,0-0.4,0
			c-0.1,0-0.1-0.1-0.2-0.1c-1-1.4-1.7-2.3-2.1-2.7v2.3c0,0.1,0,0.2,0,0.2c0,0.1,0,0.1-0.1,0.2c-0.1,0.1-0.2,0.2-0.5,0.2
			c-0.3,0-0.5-0.1-0.5-0.2c0-0.1-0.1-0.1-0.1-0.2c0-0.1,0-0.1,0-0.2v-3.9c0-0.2,0-0.3,0.1-0.4c0-0.1,0.1-0.1,0.2-0.2
			c0.1,0,0.2,0,0.3,0c0.1,0,0.3,0,0.3,0c0.1,0,0.1,0.1,0.2,0.1c0,0,0.1,0.1,0.2,0.2c1,1.3,1.6,2.2,2,2.6v-2.4
			C250.8,89.3,250.8,89.2,250.8,89.1z"/>
		<path fill="#454341" d="M263.4,92.7l0.1-0.1c0.2-0.1,0.3-0.1,0.3-0.1c0.1,0,0.3,0.1,0.5,0.4c0.1,0.2,0.2,0.3,0.2,0.4
			c0,0.1,0,0.2-0.1,0.2c-0.1,0.1-0.1,0.1-0.2,0.2c-0.1,0.1-0.2,0.1-0.2,0.1c-0.1,0-0.2,0.1-0.5,0.2c-0.2,0.1-0.5,0.1-0.7,0.1
			c-0.2,0-0.4,0-0.7-0.1c-0.2-0.1-0.5-0.2-0.7-0.3c-0.2-0.1-0.5-0.3-0.6-0.5c-0.2-0.2-0.3-0.5-0.5-0.8c-0.1-0.3-0.2-0.6-0.2-1
			c0-0.4,0.1-0.7,0.2-1s0.3-0.5,0.5-0.7c0.2-0.2,0.4-0.4,0.6-0.5c0.5-0.3,0.9-0.4,1.4-0.4c0.2,0,0.4,0,0.7,0.1
			c0.2,0.1,0.4,0.1,0.5,0.2l0.2,0.1c0.1,0.1,0.1,0.1,0.2,0.1c0.1,0.1,0.2,0.2,0.2,0.3c0,0.1,0,0.3-0.1,0.4c-0.2,0.3-0.3,0.4-0.5,0.4
			c-0.1,0-0.2-0.1-0.4-0.2c-0.2-0.2-0.5-0.2-0.8-0.2c-0.3,0-0.6,0.1-0.9,0.3c-0.1,0.1-0.3,0.2-0.3,0.4c-0.1,0.2-0.1,0.4-0.1,0.6
			c0,0.2,0,0.4,0.1,0.6c0.1,0.2,0.2,0.3,0.4,0.4c0.3,0.2,0.6,0.3,0.9,0.3c0.1,0,0.3,0,0.4-0.1C263.2,92.7,263.3,92.7,263.4,92.7z"/>
		<path fill="#454341" d="M269.1,93h1.9c0.2,0,0.3,0,0.3,0.1c0.1,0,0.1,0.1,0.1,0.2c0,0.1,0,0.2,0,0.3c0,0.1,0,0.2,0,0.3
			c0,0.1-0.1,0.1-0.1,0.2c-0.1,0-0.2,0.1-0.4,0.1h-2.5c-0.3,0-0.5-0.1-0.6-0.3c0-0.1,0-0.2,0-0.4v-3.9c0-0.1,0-0.2,0-0.2
			c0-0.1,0-0.1,0.1-0.2c0.1-0.1,0.2-0.2,0.5-0.2c0.3,0,0.5,0.1,0.6,0.3c0,0.1,0,0.2,0,0.4V93z"/>
		<path fill="#454341" d="M276.1,92.8h2.2c0.1,0,0.2,0,0.2,0c0.1,0,0.1,0,0.2,0.1c0.1,0.1,0.2,0.2,0.2,0.5c0,0.3-0.1,0.5-0.3,0.6
			c-0.1,0-0.2,0-0.4,0h-2.8c-0.3,0-0.5-0.1-0.6-0.3c0-0.1,0-0.2,0-0.4v-3.9c0-0.2,0-0.4,0.1-0.5c0.1-0.1,0.3-0.1,0.5-0.1h2.8
			c0.1,0,0.2,0,0.2,0c0.1,0,0.1,0,0.2,0.1c0.1,0.1,0.2,0.2,0.2,0.5c0,0.3-0.1,0.5-0.3,0.6c-0.1,0-0.2,0-0.4,0h-2.1v0.7h1.4
			c0.1,0,0.2,0,0.2,0c0.1,0,0.1,0,0.2,0.1c0.1,0.1,0.2,0.2,0.2,0.5c0,0.3-0.1,0.5-0.3,0.6c-0.1,0-0.2,0-0.4,0h-1.4V92.8z"/>
		<path fill="#454341" d="M285.7,88.9c0.1,0,0.2,0,0.2,0c0.1,0,0.1,0,0.2,0.1c0.1,0,0.1,0.1,0.1,0.2c0,0.1,0,0.2,0,0.4
			c0,0.1,0,0.3,0,0.4c0,0.1-0.1,0.2-0.1,0.2c-0.1,0-0.1,0.1-0.2,0.1c-0.1,0-0.1,0-0.2,0h-2.1v0.7h1.4c0.1,0,0.2,0,0.2,0
			c0.1,0,0.1,0,0.2,0.1c0.1,0.1,0.2,0.3,0.2,0.6c0,0.3-0.1,0.5-0.3,0.6c-0.1,0-0.2,0-0.4,0h-1.4v1.3c0,0.1,0,0.2,0,0.2
			c0,0.1,0,0.1-0.1,0.2c-0.1,0.1-0.2,0.2-0.5,0.2c-0.3,0-0.5-0.1-0.6-0.3c0-0.1,0-0.2,0-0.4v-3.9c0-0.2,0-0.4,0.1-0.5
			c0.1-0.1,0.3-0.1,0.5-0.1H285.7z"/>
		<path fill="#454341" d="M289.8,93.3c-0.1-0.1-0.2-0.3-0.2-0.4c0-0.1,0.1-0.3,0.3-0.5c0.1-0.1,0.2-0.2,0.4-0.2
			c0.1,0,0.3,0.1,0.5,0.3c0.1,0.1,0.2,0.2,0.3,0.2c0.1,0.1,0.2,0.1,0.3,0.1c0.4,0,0.7-0.2,0.7-0.5c0-0.1-0.1-0.2-0.2-0.3
			c-0.1-0.1-0.3-0.1-0.4-0.2c-0.2,0-0.4-0.1-0.6-0.2c-0.2-0.1-0.4-0.2-0.6-0.3c-0.2-0.1-0.3-0.3-0.4-0.5c-0.1-0.2-0.2-0.5-0.2-0.8
			c0-0.4,0.2-0.8,0.5-1.1c0.3-0.3,0.7-0.5,1.2-0.5c0.3,0,0.5,0,0.8,0.1c0.2,0.1,0.4,0.1,0.5,0.2l0.2,0.1c0.1,0.1,0.2,0.2,0.2,0.3
			c0,0.1-0.1,0.2-0.2,0.4c-0.2,0.2-0.3,0.3-0.5,0.3c-0.1,0-0.2,0-0.4-0.1c0,0,0,0-0.1-0.1c0,0-0.1-0.1-0.1-0.1
			c-0.1-0.1-0.2-0.1-0.4-0.1c-0.2,0-0.3,0-0.4,0.1c-0.1,0.1-0.2,0.2-0.2,0.3c0,0.1,0.1,0.2,0.2,0.3c0.1,0.1,0.3,0.1,0.4,0.2
			c0.2,0,0.4,0.1,0.6,0.1c0.2,0.1,0.4,0.1,0.6,0.2c0.2,0.1,0.3,0.2,0.4,0.4c0.1,0.2,0.2,0.5,0.2,0.8c0,0.3-0.1,0.6-0.2,0.8
			c-0.1,0.2-0.3,0.4-0.5,0.5c-0.4,0.2-0.8,0.4-1.2,0.4c-0.2,0-0.4,0-0.6-0.1c-0.2-0.1-0.4-0.1-0.5-0.2
			C290.1,93.6,289.9,93.5,289.8,93.3L289.8,93.3z"/>
		<path fill="#454341" d="M302.6,92.8h2.2c0.1,0,0.2,0,0.2,0c0.1,0,0.1,0,0.2,0.1c0.1,0.1,0.2,0.2,0.2,0.5c0,0.3-0.1,0.5-0.3,0.6
			c-0.1,0-0.2,0-0.4,0H302c-0.3,0-0.5-0.1-0.6-0.3c0-0.1,0-0.2,0-0.4v-3.9c0-0.2,0-0.4,0.1-0.5c0.1-0.1,0.3-0.1,0.5-0.1h2.8
			c0.1,0,0.2,0,0.2,0c0.1,0,0.1,0,0.2,0.1c0.1,0.1,0.2,0.2,0.2,0.5c0,0.3-0.1,0.5-0.3,0.6c-0.1,0-0.2,0-0.4,0h-2.1v0.7h1.4
			c0.1,0,0.2,0,0.2,0c0.1,0,0.1,0,0.2,0.1c0.1,0.1,0.2,0.2,0.2,0.5c0,0.3-0.1,0.5-0.3,0.6c-0.1,0-0.2,0-0.4,0h-1.4V92.8z"/>
		<path fill="#454341" d="M309.1,88.9h3.9c0.1,0,0.3,0,0.3,0.1c0.1,0,0.1,0.1,0.1,0.2c0,0.1,0,0.2,0,0.3s0,0.2,0,0.3
			c0,0.1-0.1,0.1-0.1,0.2c-0.1,0-0.2,0.1-0.4,0.1h-1.3v3.5c0,0.1,0,0.2,0,0.2c0,0.1,0,0.1-0.1,0.2c0,0.1-0.1,0.1-0.2,0.1
			c-0.1,0-0.2,0-0.3,0c-0.1,0-0.3,0-0.3,0c-0.1,0-0.1-0.1-0.2-0.1c0-0.1-0.1-0.1-0.1-0.2c0-0.1,0-0.1,0-0.2v-3.5h-1.3
			c-0.1,0-0.3,0-0.3-0.1c-0.1,0-0.1-0.1-0.1-0.2c0-0.1,0-0.2,0-0.3c0-0.1,0-0.2,0-0.3c0-0.1,0.1-0.1,0.1-0.2
			C308.9,88.9,309,88.9,309.1,88.9z"/>
		<path fill="#454341" d="M324.7,92.7l0.1-0.1c0.2-0.1,0.3-0.1,0.3-0.1c0.1,0,0.3,0.1,0.5,0.4c0.1,0.2,0.2,0.3,0.2,0.4
			c0,0.1,0,0.2-0.1,0.2c-0.1,0.1-0.1,0.1-0.2,0.2c-0.1,0.1-0.2,0.1-0.2,0.1c-0.1,0-0.2,0.1-0.5,0.2c-0.2,0.1-0.5,0.1-0.7,0.1
			c-0.2,0-0.4,0-0.7-0.1c-0.2-0.1-0.5-0.2-0.7-0.3c-0.2-0.1-0.5-0.3-0.6-0.5c-0.2-0.2-0.3-0.5-0.5-0.8c-0.1-0.3-0.2-0.6-0.2-1
			c0-0.4,0.1-0.7,0.2-1s0.3-0.5,0.5-0.7c0.2-0.2,0.4-0.4,0.6-0.5c0.5-0.3,0.9-0.4,1.4-0.4c0.2,0,0.4,0,0.7,0.1
			c0.2,0.1,0.4,0.1,0.5,0.2l0.2,0.1c0.1,0.1,0.1,0.1,0.2,0.1c0.1,0.1,0.2,0.2,0.2,0.3c0,0.1,0,0.3-0.1,0.4c-0.2,0.3-0.3,0.4-0.5,0.4
			c-0.1,0-0.2-0.1-0.4-0.2c-0.2-0.2-0.5-0.2-0.8-0.2c-0.3,0-0.6,0.1-0.9,0.3c-0.1,0.1-0.3,0.2-0.3,0.4c-0.1,0.2-0.1,0.4-0.1,0.6
			c0,0.2,0,0.4,0.1,0.6c0.1,0.2,0.2,0.3,0.4,0.4c0.3,0.2,0.6,0.3,0.9,0.3c0.1,0,0.3,0,0.4-0.1C324.6,92.7,324.7,92.7,324.7,92.7z"/>
		<path fill="#454341" d="M332,89.2l1.9,3.9c0.1,0.2,0.1,0.3,0.1,0.4c0,0.2-0.1,0.3-0.4,0.5c-0.2,0.1-0.3,0.1-0.4,0.1
			c-0.1,0-0.2,0-0.2-0.1c-0.1,0-0.1-0.1-0.1-0.1c0,0-0.1-0.1-0.1-0.2l-0.4-0.8h-1.9l-0.4,0.8c0,0.1-0.1,0.2-0.1,0.2
			c0,0-0.1,0.1-0.1,0.1c-0.1,0-0.1,0.1-0.2,0.1c-0.1,0-0.2,0-0.4-0.1c-0.3-0.1-0.4-0.3-0.4-0.4c0-0.1,0-0.2,0.1-0.4l1.9-3.9
			c0.1-0.1,0.1-0.2,0.2-0.3c0.1-0.1,0.2-0.1,0.3-0.1C331.7,88.9,331.9,89,332,89.2z M331.5,90.9l-0.5,1h0.9L331.5,90.9z"/>
		<path fill="#454341" d="M341.3,93.1c0.1,0.2,0.1,0.3,0.1,0.4c0,0.2-0.1,0.3-0.4,0.4c-0.1,0.1-0.3,0.1-0.4,0.1
			c-0.1,0-0.2,0-0.2-0.1c-0.1,0-0.1-0.1-0.1-0.1c0-0.1-0.2-0.5-0.5-1.3l-0.2,0h-0.9v0.8c0,0.1,0,0.2,0,0.2c0,0.1,0,0.1-0.1,0.2
			c-0.1,0.1-0.2,0.2-0.5,0.2c-0.3,0-0.5-0.1-0.6-0.3c0-0.1,0-0.2,0-0.4v-3.9c0-0.1,0-0.2,0-0.2c0-0.1,0-0.1,0.1-0.2
			c0.1-0.1,0.2-0.2,0.5-0.2h1.5c0.4,0,0.8,0.1,1.2,0.4c0.2,0.1,0.3,0.3,0.5,0.6c0.1,0.2,0.2,0.5,0.2,0.8c0,0.5-0.2,1-0.5,1.3
			C340.9,92.3,341.1,92.6,341.3,93.1z M338.6,91.3h0.9c0.1,0,0.3-0.1,0.4-0.2c0.1-0.1,0.2-0.3,0.2-0.5c0-0.2-0.1-0.4-0.2-0.5
			c-0.1-0.1-0.3-0.2-0.4-0.2h-0.9V91.3z"/>
		<path fill="#454341" d="M344.8,88.9h3.9c0.1,0,0.3,0,0.3,0.1c0.1,0,0.1,0.1,0.1,0.2c0,0.1,0,0.2,0,0.3s0,0.2,0,0.3
			c0,0.1-0.1,0.1-0.1,0.2c-0.1,0-0.2,0.1-0.4,0.1h-1.3v3.5c0,0.1,0,0.2,0,0.2c0,0.1,0,0.1-0.1,0.2c0,0.1-0.1,0.1-0.2,0.1
			c-0.1,0-0.2,0-0.3,0c-0.1,0-0.3,0-0.3,0c-0.1,0-0.1-0.1-0.2-0.1c0-0.1-0.1-0.1-0.1-0.2c0-0.1,0-0.1,0-0.2v-3.5h-1.3
			c-0.1,0-0.3,0-0.3-0.1c-0.1,0-0.1-0.1-0.1-0.2c0-0.1,0-0.2,0-0.3c0-0.1,0-0.2,0-0.3c0-0.1,0.1-0.1,0.1-0.2
			C344.5,88.9,344.6,88.9,344.8,88.9z"/>
		<path fill="#454341" d="M353.7,92.8h2.2c0.1,0,0.2,0,0.2,0c0.1,0,0.1,0,0.2,0.1c0.1,0.1,0.2,0.2,0.2,0.5c0,0.3-0.1,0.5-0.3,0.6
			c-0.1,0-0.2,0-0.4,0h-2.8c-0.3,0-0.5-0.1-0.6-0.3c0-0.1,0-0.2,0-0.4v-3.9c0-0.2,0-0.4,0.1-0.5c0.1-0.1,0.3-0.1,0.5-0.1h2.8
			c0.1,0,0.2,0,0.2,0c0.1,0,0.1,0,0.2,0.1c0.1,0.1,0.2,0.2,0.2,0.5c0,0.3-0.1,0.5-0.3,0.6c-0.1,0-0.2,0-0.4,0h-2.1v0.7h1.4
			c0.1,0,0.2,0,0.2,0c0.1,0,0.1,0,0.2,0.1c0.1,0.1,0.2,0.2,0.2,0.5c0,0.3-0.1,0.5-0.3,0.6c-0.1,0-0.2,0-0.4,0h-1.4V92.8z"/>
		<path fill="#454341" d="M360,93.3c-0.1-0.1-0.2-0.3-0.2-0.4c0-0.1,0.1-0.3,0.3-0.5c0.1-0.1,0.2-0.2,0.4-0.2c0.1,0,0.3,0.1,0.5,0.3
			c0.1,0.1,0.2,0.2,0.3,0.2c0.1,0.1,0.2,0.1,0.3,0.1c0.4,0,0.7-0.2,0.7-0.5c0-0.1-0.1-0.2-0.2-0.3c-0.1-0.1-0.3-0.1-0.4-0.2
			c-0.2,0-0.4-0.1-0.6-0.2c-0.2-0.1-0.4-0.2-0.6-0.3c-0.2-0.1-0.3-0.3-0.4-0.5c-0.1-0.2-0.2-0.5-0.2-0.8c0-0.4,0.2-0.8,0.5-1.1
			c0.3-0.3,0.7-0.5,1.2-0.5c0.3,0,0.5,0,0.8,0.1c0.2,0.1,0.4,0.1,0.5,0.2l0.2,0.1c0.1,0.1,0.2,0.2,0.2,0.3c0,0.1-0.1,0.2-0.2,0.4
			c-0.2,0.2-0.3,0.3-0.5,0.3c-0.1,0-0.2,0-0.4-0.1c0,0,0,0-0.1-0.1c0,0-0.1-0.1-0.1-0.1c-0.1-0.1-0.2-0.1-0.4-0.1
			c-0.2,0-0.3,0-0.4,0.1c-0.1,0.1-0.2,0.2-0.2,0.3c0,0.1,0.1,0.2,0.2,0.3c0.1,0.1,0.3,0.1,0.4,0.2c0.2,0,0.4,0.1,0.6,0.1
			c0.2,0.1,0.4,0.1,0.6,0.2c0.2,0.1,0.3,0.2,0.4,0.4c0.1,0.2,0.2,0.5,0.2,0.8c0,0.3-0.1,0.6-0.2,0.8c-0.1,0.2-0.3,0.4-0.5,0.5
			c-0.4,0.2-0.8,0.4-1.2,0.4c-0.2,0-0.4,0-0.6-0.1c-0.2-0.1-0.4-0.1-0.5-0.2C360.3,93.6,360.1,93.5,360,93.3L360,93.3z"/>
	</g>
	<g>
		<path fill="#ABA39D" d="M129.5,90.9c-0.1,0-0.3,0-0.4-0.1c-0.2-0.1-3.9-1.4-6-2.3c-2.2,1.2-4.7,1.8-7.2,1.8
			c-8.5,0-15.4-6.9-15.4-15.4c0-8.5,6.9-15.4,15.4-15.4c8.5,0,15.4,6.9,15.4,15.4c0,3-0.9,5.9-2.5,8.5l1.9,5.9
			c0.1,0.4,0,0.9-0.3,1.2C130.1,90.8,129.8,90.9,129.5,90.9z M115.9,62c-7.2,0-13,5.8-13,13c0,7.2,5.8,13,13,13
			c2.3,0,4.5-0.6,6.5-1.7c0.3-0.2,0.7-0.2,1-0.1c1,0.4,2.8,1.1,4.2,1.6l-1.3-4.2c-0.1-0.4,0-0.7,0.2-1c1.6-2.2,2.4-4.8,2.4-7.6
			C128.9,67.8,123.1,62,115.9,62z"/>
		<path fill="#C5351F" d="M124.3,77.3c-2.1-2.4-5.1-3.9-8.2-3.9c-3.2,0-6.2,1.4-8.2,3.9c-0.3,0.3-0.2,0.8,0.1,1.1
			c0.1,0.1,0.3,0.2,0.5,0.2c0.2,0,0.4-0.1,0.6-0.3c1.8-2.1,4.3-3.3,7.1-3.3c2.7,0,5.3,1.2,7.1,3.3c0.2,0.2,0.4,0.3,0.6,0.3
			c0.2,0,0.3-0.1,0.5-0.2C124.6,78.1,124.6,77.7,124.3,77.3z"/>
		<path fill="#C5351F" d="M116.1,76.6c-2.3,0-4.4,1-5.9,2.7c-0.3,0.3-0.2,0.8,0.1,1.1c0.1,0.1,0.3,0.2,0.5,0.2
			c0.2,0,0.4-0.1,0.6-0.3c1.2-1.4,2.9-2.2,4.7-2.2c1.8,0,3.5,0.8,4.7,2.2c0.2,0.2,0.4,0.3,0.6,0.3c0.2,0,0.3-0.1,0.5-0.2
			c0.3-0.3,0.4-0.8,0.1-1.1C120.5,77.6,118.4,76.6,116.1,76.6z"/>
		<path fill="#C5351F" d="M116.1,79.6c-1.4,0-2.6,0.6-3.5,1.7c-0.3,0.3-0.2,0.8,0.1,1.1c0.1,0.1,0.3,0.2,0.5,0.2
			c0.2,0,0.4-0.1,0.6-0.3c0.6-0.7,1.4-1.1,2.4-1.1c0.9,0,1.8,0.4,2.4,1.1c0.2,0.2,0.4,0.3,0.6,0.3c0.2,0,0.4-0.1,0.5-0.2
			c0.3-0.3,0.4-0.8,0.1-1.1C118.7,80.2,117.5,79.6,116.1,79.6z"/>
		<circle fill="#C5351F" cx="116.1" cy="83.1" r="1"/>
	</g>
	<path fill="#454341" d="M140,76.6c-0.3,0-0.6-0.1-0.9-0.2l-13.5-7c-3.8,1.4-7.9,2.1-12,2.1c-19.7,0-35.7-16-35.7-35.7
		C77.9,16,93.9,0,113.6,0c19.7,0,35.7,16,35.7,35.7c0,9.5-3.6,18.3-10.2,25l2.7,13.5c0.1,0.7-0.1,1.5-0.7,1.9
		C140.8,76.5,140.4,76.6,140,76.6z M125.8,65.4c0.3,0,0.6,0.1,0.9,0.2l10.7,5.5l-2.1-10.5c-0.2-0.7,0-1.4,0.5-1.9
		c6.3-6.1,9.8-14.3,9.8-23c0-17.6-14.3-31.9-31.9-31.9C96,3.8,81.7,18.2,81.7,35.7c0,17.6,14.3,31.9,31.9,31.9
		c3.9,0,7.8-0.7,11.4-2.1C125.3,65.4,125.5,65.4,125.8,65.4z"/>
	<path fill="#454341" d="M369.4,79.8c-1.2-2.8-1.3-6-0.1-8.9c2.4-6,9.2-9,15.2-6.6c6,2.4,9,9.2,6.6,15.2c-2.4,6-9.2,9-15.2,6.6
		c-1.3-0.5-2.4-1.2-3.4-2.1l-5,0.5c-0.1,0-0.2,0-0.3,0c-0.1,0-0.2-0.1-0.3-0.3c-0.1-0.2-0.1-0.5,0-0.7L369.4,79.8z"/>
	<g>
		<path fill="#FFFFFF" d="M371.5,76.8c0.1,0.1,0.1,0.3,0.1,0.5v0c0,0.1,0,0.2,0,0.3c0,0.1,0,0.1-0.1,0.2c-0.1,0.1-0.3,0.2-0.6,0.2
			s-0.5,0-0.6-0.1c-0.1-0.1-0.1-0.3-0.1-0.5v0c0-0.1,0-0.2,0-0.3c0-0.1,0-0.1,0.1-0.2c0.1-0.1,0.3-0.2,0.6-0.2
			S371.4,76.6,371.5,76.8z"/>
		<path fill="#FFFFFF" d="M375.8,76.6l0.1-0.1c0.2-0.1,0.3-0.1,0.4-0.1c0.2,0,0.3,0.1,0.5,0.4c0.1,0.2,0.2,0.3,0.2,0.4
			c0,0.1,0,0.2-0.1,0.3c-0.1,0.1-0.1,0.1-0.2,0.2c-0.1,0.1-0.2,0.1-0.3,0.2c-0.1,0-0.2,0.1-0.5,0.2c-0.3,0.1-0.5,0.1-0.7,0.1
			c-0.2,0-0.5,0-0.7-0.1c-0.2-0.1-0.5-0.2-0.7-0.3c-0.3-0.1-0.5-0.3-0.7-0.5c-0.2-0.2-0.4-0.5-0.5-0.8c-0.1-0.3-0.2-0.7-0.2-1.1
			c0-0.4,0.1-0.7,0.2-1c0.1-0.3,0.3-0.6,0.5-0.8c0.2-0.2,0.4-0.4,0.7-0.5c0.5-0.3,1-0.4,1.4-0.4c0.2,0,0.5,0,0.7,0.1
			c0.2,0.1,0.4,0.1,0.5,0.2l0.2,0.1c0.1,0.1,0.2,0.1,0.2,0.1c0.1,0.1,0.2,0.2,0.2,0.3c0,0.1-0.1,0.3-0.2,0.4
			c-0.2,0.3-0.4,0.4-0.5,0.4c-0.1,0-0.2-0.1-0.4-0.2c-0.2-0.2-0.5-0.3-0.8-0.3c-0.3,0-0.6,0.1-0.9,0.3c-0.1,0.1-0.3,0.3-0.4,0.5
			c-0.1,0.2-0.1,0.4-0.1,0.7s0,0.5,0.1,0.7c0.1,0.2,0.2,0.4,0.4,0.5c0.3,0.2,0.6,0.3,0.9,0.3c0.2,0,0.3,0,0.4-0.1
			C375.6,76.6,375.7,76.6,375.8,76.6z"/>
		<path fill="#FFFFFF" d="M380.2,72.5c0.7,0,1.4,0.3,1.9,0.8s0.8,1.2,0.8,2c0,0.8-0.3,1.4-0.8,2c-0.5,0.5-1.1,0.8-1.9,0.8
			c-0.7,0-1.4-0.3-1.9-0.8c-0.5-0.5-0.8-1.2-0.8-1.9c0-0.4,0.1-0.8,0.2-1.1c0.1-0.4,0.3-0.7,0.6-0.9c0.2-0.2,0.5-0.4,0.8-0.6
			C379.6,72.6,379.9,72.5,380.2,72.5z M378.9,75.3c0,0.4,0.1,0.8,0.4,1.1c0.3,0.3,0.6,0.4,0.9,0.4c0.3,0,0.7-0.1,0.9-0.4
			c0.3-0.3,0.4-0.6,0.4-1.1c0-0.4-0.1-0.8-0.4-1.1c-0.3-0.3-0.6-0.4-0.9-0.4c-0.3,0-0.7,0.1-0.9,0.4C379,74.5,378.9,74.8,378.9,75.3
			z"/>
		<path fill="#FFFFFF" d="M389.4,72.8c0,0.1,0.1,0.1,0.1,0.2c0,0.1,0,0.1,0,0.3v4.1c0,0.3-0.1,0.5-0.3,0.6c-0.1,0-0.2,0-0.4,0
			c-0.1,0-0.3,0-0.3,0c-0.1,0-0.1-0.1-0.2-0.1c0,0-0.1-0.1-0.1-0.1c0-0.1,0-0.2,0-0.4v-2.5c-0.1,0.2-0.3,0.4-0.5,0.7
			c-0.2,0.3-0.4,0.5-0.4,0.6c-0.1,0.1-0.1,0.1-0.1,0.2c0,0-0.1,0.1-0.2,0.1c-0.1,0.1-0.2,0.1-0.3,0.1c-0.1,0-0.2,0-0.3-0.1
			c-0.1-0.1-0.2-0.1-0.2-0.2l-0.1-0.1c-0.1-0.1-0.3-0.4-0.6-0.8c-0.3-0.4-0.4-0.6-0.5-0.6v2.5c0,0.1,0,0.2,0,0.3
			c0,0.1,0,0.1-0.1,0.2c-0.1,0.1-0.3,0.2-0.6,0.2c-0.3,0-0.5-0.1-0.6-0.2c0-0.1-0.1-0.1-0.1-0.2c0-0.1,0-0.1,0-0.3v-4.1
			c0-0.1,0-0.2,0-0.3c0-0.1,0-0.1,0.1-0.2c0.1-0.1,0.3-0.2,0.6-0.2c0.1,0,0.2,0,0.3,0c0.1,0,0.2,0.1,0.2,0.1l0,0l1.7,2.2
			c0.8-1.1,1.4-1.8,1.7-2.2c0.1-0.1,0.3-0.2,0.6-0.2S389.4,72.6,389.4,72.8z"/>
	</g>
</g>
</svg>
