<?xml version="1.0" encoding="utf-8"?>
<!-- Generator: Adobe Illustrator 17.1.0, SVG Export Plug-In . SVG Version: 6.00 Build 0)  -->
<!DOCTYPE svg PUBLIC "-//W3C//DTD SVG 1.1//EN" "http://www.w3.org/Graphics/SVG/1.1/DTD/svg11.dtd">
<svg version="1.1" id="Calque_1" xmlns="http://www.w3.org/2000/svg" xmlns:xlink="http://www.w3.org/1999/xlink" x="0px" y="0px"
	 viewBox="301.2 10.1 587.9 653.3" enable-background="new 301.2 10.1 587.9 653.3" xml:space="preserve">
<path fill="#9B1B0D" d="M853.5,210.1L834.8,229c90,119.9,65.7,290.1-54.2,380.1c-41.9,31.5-92.1,50.1-144.4,53.7
	c-6.2,0.4-12.3,0.6-18.5,0.6c-76.9,0.2-150.2-32.4-201.6-89.5c-6.1-7-5.3-17.7,1.8-23.7c6.8-5.9,17-5.4,23.2,1.2
	c88.1,97.5,238.5,105.1,336,17.1c95.2-86,105.1-232,22.3-330c-5.7-6.7-5.3-16.6,0.9-22.8l29.4-29.4c4.4-4.9,4-12.4-0.8-16.8
	c-4.5-4.1-11.5-4.1-16,0l-30.5,30.5c-5.9,5.9-15.3,6.6-22,1.5c-33.8-25.3-73.7-41.2-115.7-45.9c-8.5-0.9-15-8.1-15-16.7V84.5
	c-0.1-9.3,7.3-17,16.6-17.1c0.1,0,0.2,0,0.3,0h15.4c6.6,0,11.9-5.3,11.9-11.9c0-6.6-5.3-11.9-11.9-11.9h-88.4
	c-6.6,0-11.9,5.3-11.9,11.9c0,6.6,5.3,11.9,11.9,11.9h15.4c9.3,0,16.8,7.5,16.8,16.8v54.6c0,8.6-6.4,15.7-15,16.7
	c-54.4,6.2-105.1,31-143.3,70.2c-6.5,6.7-17.2,6.8-23.9,0.2c-6.7-6.5-6.8-17.2-0.2-23.9c40.1-41,92.2-68.3,148.7-77.9V101
	c-25.1-2.3-43.6-24.5-41.3-49.5c2-22.4,20.2-40,42.7-41.4h88.4c25.1,1.5,44.3,23.1,42.8,48.2c-1.3,22.5-18.9,40.6-41.4,42.7v22.8
	c37.6,6.4,73.5,20.6,105.3,41.8l20.2-20.2c17.8-17.8,46.7-17.8,64.5,0c17.8,17.8,17.8,46.7,0,64.5l0,0L853.5,210.1z M301.2,305.6
	c0,9.3,7.5,16.8,16.8,16.8H435c9.3,0,16.8-7.5,16.8-16.8c0-9.3-7.5-16.8-16.8-16.8H318.1C308.9,288.7,301.3,296.2,301.2,305.6
	L301.2,305.6z M492.6,387.2c0-9.3-7.5-16.8-16.8-16.8H358.9c-9.3,0-16.8,7.5-16.8,16.8c0,9.3,7.5,16.8,16.8,16.8h116.9
	C485.1,404,492.6,396.5,492.6,387.2z M318.1,485.7H435c9.3,0,16.8-7.5,16.8-16.8c0-9.3-7.5-16.8-16.8-16.8H318.1
	c-9.3,0-16.8,7.5-16.8,16.8C301.3,478.2,308.8,485.7,318.1,485.7z M711.1,322.2l-43.2,43.2c14.6,27.8,4,62.2-23.8,76.9
	c-27.8,14.6-62.2,4-76.9-23.8c-14.6-27.8-4-62.2,23.8-76.9c16.6-8.7,36.4-8.7,53,0l43.2-43.2c6.6-6.6,17.3-6.6,23.8,0
	C717.7,305,717.7,315.6,711.1,322.2z M640.8,391.8c0-12.8-10.3-23.1-23.1-23.1s-23.1,10.3-23.1,23.1c0,12.8,10.3,23.1,23.1,23.1
	C630.4,414.9,640.8,404.6,640.8,391.8z M617.7,592.2c110.7,0.2,200.6-89.4,200.8-200.1c0.2-110.7-89.4-200.6-200.1-200.8
	c-53.3-0.1-104.4,21-142.1,58.7c-6.6,6.6-6.6,17.3,0,23.8c6.6,6.6,17.3,6.6,23.8,0c65.1-65.2,170.7-65.3,235.9-0.2
	c65.2,65.1,65.3,170.7,0.2,235.9c-65.1,65.2-170.7,65.3-235.9,0.2c-0.1-0.1-0.1-0.1-0.2-0.2c-6.6-6.6-17.3-6.6-23.8,0
	c-6.6,6.6-6.6,17.3,0,23.8C513.7,571.1,564.6,592.2,617.7,592.2z"/>
</svg>
