<?xml version="1.0" encoding="utf-8"?>
<!-- Generator: Adobe Illustrator 17.1.0, SVG Export Plug-In . SVG Version: 6.00 Build 0)  -->
<!DOCTYPE svg PUBLIC "-//W3C//DTD SVG 1.1//EN" "http://www.w3.org/Graphics/SVG/1.1/DTD/svg11.dtd">
<svg version="1.1" id="Calque_1" xmlns="http://www.w3.org/2000/svg" xmlns:xlink="http://www.w3.org/1999/xlink" x="0px" y="0px"
	 viewBox="51 -0.1 472.6 792.1" enable-background="new 51 -0.1 472.6 792.1" xml:space="preserve">
<path fill="#9B1B0D" d="M96.6,645.6c-3.9,11.9-6.3,23.7-6.3,37.3c0.1,60.3,48.5,109.4,108,109.3c41.2-0.1,78.5-23.9,96.7-60.5
	c16.7,1.5,33.3-0.1,49.1-5.6c31.8-10.4,57.9-32.6,72.8-62.7c21.4-42,17.2-92-9.7-129.9l18.2-35.8c1.5-3.1,2.4-7.2,0.8-11.2
	l-8.8-32.5l19.1-11.2c4-2.4,7.2-7.2,7.9-11.9l3.1-28.5l23.7-24.6c2.4-2.4,3.9-6.4,4.8-9.5l2.4-27l22.1-23.8c1.6-1.6,2.4-2.4,3.1-4
	l18.2-35.8c1.5-3.1,2.4-6.4,1.5-9.5l-7.3-51.5c-0.9-4.8-3.1-8.8-7.2-11.1c-2.4-1.5-5.5-2.4-7.9-2.4c-1.6,0-3.1,0-4.8,0.9l-56.2,19.2
	c-4,1.6-7.2,4-8.7,7.9L319.6,453.6c-13.5-19.8-32.5-35.7-54-46.7l-0.1-50.7c0-4-1.6-7.9-4-10.3l-28.6-31.7l16.1-24.7
	c2.4-4,3.1-9.5,1.5-14.3l-12.8-33.3l12.6-40.4c0.8-3.1,0.8-7.2,0-10.3l-12.8-31.8l12.6-38.9c0.8-1.6,0.8-3.1,0.8-4.8L251,67.4
	c0-3.1-0.9-6.4-3.1-9.5L211.3,6.4c-2.4-4-7.2-6.3-11.9-6.3c-0.8,0-0.8,0-1.6,0c-4,0-7.9,1.6-11.2,4.8l-50.6,51.6
	c-3.1,3.1-4.8,7.2-4.8,11.2l0.6,338.4c-50,25.5-80.7,76.3-80.6,132.5C49.7,580.7,68,618.8,96.6,645.6z M151.7,431.5L151.7,431.5
	c6.4-2.4,10.3-8.8,10.3-15.1l-0.6-343.2l33.3-33.4l22.2,31.7l0.1,41.2l-13.3,42c-0.8,3.1-0.8,7.2,0,11.2l12.8,31.8l-12.6,40.4
	c-0.8,3.1-0.8,7.2,0,10.3l11.9,30.9l-17.3,28.6c-3.9,6.4-3.1,13.4,1.6,19.1l32.5,35.7l0.1,54c0,6.4,4,12.7,10.3,15.1
	c42.8,18.1,71.4,60.2,71.5,106.9c0.1,64.3-52.1,116.6-116.3,116.7c-22.2,0-43.7-6.3-61-17.3c7.2-9.5,15.8-17.4,26.1-22.2
	c7.9,11.1,20.7,18.2,35.8,18.2c22.2,0,39.7-16.7,42.7-37.4l0,0c0-1.6,0-4,0-5.5c0-23.7-19.1-43.6-43.7-43.6
	c-21.5,0-38.8,15.9-42.7,36.5c-17.4,7.2-31.6,19.1-42.7,34.1c-19.1-20.6-30.2-48.3-30.2-78.5C81.3,492,108.9,449.8,151.7,431.5z
	 M198.3,760.4c-42,0.1-76.2-34.8-76.3-77.6c0-5.5,0.8-11.2,1.5-16.7c22.2,12.7,47.6,20.5,74.6,20.5c4,0,7.9,0,11.9-0.9
	c10.3,13.4,23.8,24.5,39.7,32.4c4,2.4,8.8,3.9,12.7,5.5C249,746.1,224.4,760.4,198.3,760.4z M455.1,251.1l31.8-11.2l4,27.7
	l-15.1,29.4l-25.4,25.5c-2.4,2.4-3.9,6.4-4.8,9.5l-2.4,27l-23.7,24.6c-2.4,2.4-3.9,5.5-4.8,9.5l-1.5,26.1l-22.2,13.5
	c-6.3,4-8.7,11.2-7.2,17.4l10.4,38l-19.7,38.9c-3.1,5.5-2.4,12.7,2.4,17.4c24.6,28.5,29.5,69.7,12,103.8
	c-11.1,22.2-30.9,39.7-54.6,46.8c-23,7.9-48.3,5.6-69.8-5.4c-6.4-3.1-12.7-7.2-18.2-11.8c4.8-1.6,9.5-4,14.3-5.5
	c2.4,2.4,5.5,4.8,8.8,6.3c5.5,3.1,11.9,3.9,18.2,3.9c0.8,0,1.6,0,2.4,0c3.1,0,5.5-0.9,8.8-1.6c9.5-3.1,17.4-10.3,22.1-19.1
	c6.3-12.7,4.8-27.7-2.5-38.8c16.6-23.8,26.9-53.2,26.8-84.9c0-17.4-3.2-34.9-8.8-50.7L455.1,251.1z"/>
</svg>
