<?xml version="1.0" encoding="utf-8"?>
<!-- Generator: Adobe Illustrator 17.1.0, SVG Export Plug-In . SVG Version: 6.00 Build 0)  -->
<!DOCTYPE svg PUBLIC "-//W3C//DTD SVG 1.1//EN" "http://www.w3.org/Graphics/SVG/1.1/DTD/svg11.dtd">
<svg version="1.1" id="Calque_1" xmlns="http://www.w3.org/2000/svg" xmlns:xlink="http://www.w3.org/1999/xlink" x="0px" y="0px"
	 viewBox="285.5 26.9 619.6 619.6" enable-background="new 285.5 26.9 619.6 619.6" xml:space="preserve">
<g transform="translate(0,-952.36218)">
	<path fill="#9B1B0D" d="M595.3,979.3c-11.2,0-20.2,9-20.2,20.2v41.3c-121.3,9.8-218.4,106.8-228.2,228.2h-41.3
		c-11.2,0-20.2,9-20.2,20.2s9,20.2,20.2,20.2h41.3c9.8,121.3,106.8,218.4,228.2,228.2v41.3c0,11.2,9,20.2,20.2,20.2
		c11.2,0,20.2-9,20.2-20.2v-41.3c121.3-9.8,218.4-106.8,228.2-228.2h41.3c11.2,0,20.2-9,20.2-20.2s-9-20.2-20.2-20.2h-41.3
		c-9.8-121.3-106.8-218.4-228.2-228.2v-41.3C615.5,988.3,606.4,979.3,595.3,979.3z M573.8,1081.4c0.4-0.1,0.9,0.1,1.3,0v39.4
		c0,11.2,9,20.2,20.2,20.2c11.2,0,20.2-9,20.2-20.2v-39.4c99.4,9.5,178.1,88.1,187.5,187.5h-39.4c-11.2,0-20.2,9-20.2,20.2
		s9,20.2,20.2,20.2H803c-9.5,99.4-88.1,178.1-187.5,187.5v-39.4c0-11.2-9-20.2-20.2-20.2c-11.2,0-20.2,9-20.2,20.2v39.4
		c-99.4-9.5-178.1-88.1-187.5-187.5h39.4c11.2,0,20.2-9,20.2-20.2c0-11.2-9-20.2-20.2-20.2h-39.4
		C397,1169.9,475,1091.4,573.8,1081.4L573.8,1081.4z M622.4,1167.9c-50,0-93.2,30.7-111.8,74.1h-16.4c-11.2,0-20.2,9-20.2,20.2
		c0,11.2,9,20.2,20.2,20.2h7.2c-0.1,2.3-0.4,4.4-0.4,6.7c0,4.5,0.3,9.1,0.8,13.5h-7.6c-11.2,0-20.2,9-20.2,20.2
		c0,11.2,9,20.2,20.2,20.2h19.6c20,39.8,61.2,67.4,108.6,67.4c38.5,0,66.3-17.9,88.2-39.8c8.2-7.3,6.4-24,0.8-29.5
		c-9.1-9-22.2-7.2-29.5,1.1c-18.5,18.5-32,27.8-59.6,27.8c-24.1,0-45.6-10.4-60.4-26.9H629c11.2,0,20.2-9,20.2-20.2
		c0-11.2-9-20.2-20.2-20.2h-86.3c-0.7-4.4-1.3-8.9-1.3-13.5c0-2.3,0.2-4.5,0.4-6.7H629c11.2,0,20.2-9,20.2-20.2
		c0-11.2-9-20.2-20.2-20.2h-72.2c14.7-20.4,38.5-33.7,65.7-33.7c27.5,0,41.1,9.1,59.6,27.6c7.2,8.3,21.7,8.8,29.5,1.1
		s6-23.2-0.8-29.5C688.7,1185.5,660.9,1167.9,622.4,1167.9L622.4,1167.9z"/>
</g>
</svg>
