<?xml version="1.0" standalone="no"?>
<!DOCTYPE svg PUBLIC "-//W3C//DTD SVG 20010904//EN"
 "http://www.w3.org/TR/2001/REC-SVG-20010904/DTD/svg10.dtd">
<svg version="1.0" xmlns="http://www.w3.org/2000/svg"
 width="169.000000pt" height="169.000000pt" viewBox="0 0 169.000000 169.000000"
 preserveAspectRatio="xMidYMid meet">
<metadata>
Created by potrace 1.11, written by Peter Selinger 2001-2013
</metadata>
<g transform="translate(0.000000,169.000000) scale(0.100000,-0.100000)"
fill="#000000" stroke="none">
<path d="M679 1676 c-143 -30 -264 -95 -378 -201 -175 -165 -261 -378 -248
-615 4 -58 14 -132 22 -165 24 -88 87 -211 145 -283 l51 -63 -31 -155 c-30
-148 -31 -157 -14 -175 9 -10 25 -19 36 -19 10 0 84 34 164 76 l146 77 76 -19
c111 -27 291 -26 395 4 276 79 483 285 558 559 30 107 30 285 0 397 -43 161
-136 310 -259 412 -74 61 -216 136 -302 160 -78 21 -279 27 -361 10z m137
-271 c27 -11 40 -26 59 -70 54 -121 81 -287 55 -335 -7 -14 -6 -30 6 -59 12
-31 13 -44 4 -61 -10 -20 -8 -27 24 -59 33 -34 36 -41 36 -97 0 -56 2 -61 31
-78 33 -19 33 -20 13 -107 -5 -22 2 -35 31 -68 l38 -42 -18 -33 c-10 -19 -26
-44 -36 -57 l-17 -23 -66 18 -66 18 0 59 0 59 -46 28 c-45 27 -45 27 -39 70 6
39 3 47 -33 92 -36 44 -39 54 -35 93 5 38 3 44 -20 54 -15 7 -31 27 -38 47 -7
20 -16 36 -21 36 -16 0 -78 63 -107 109 -52 80 -104 219 -96 257 19 102 232
195 341 149z"/>
<path d="M670 1361 c-86 -27 -150 -82 -150 -130 0 -33 88 -216 124 -258 35
-41 53 -41 156 -2 101 39 109 51 92 151 -15 87 -55 203 -78 229 -18 20 -93 25
-144 10z m113 -83 c25 -52 12 -70 -73 -101 -78 -29 -94 -27 -115 14 -28 54
-15 73 75 107 73 28 91 25 113 -20z"/>
<path d="M673 1252 c-41 -15 -54 -34 -34 -47 15 -8 106 31 106 46 0 20 -24 20
-72 1z"/>
<path d="M847 938 c-15 -12 -13 -23 29 -132 30 -79 42 -122 35 -129 -20 -20
-37 3 -74 105 -47 129 -49 132 -76 123 -33 -10 -26 -43 15 -67 35 -21 36 -23
31 -68 -5 -43 -3 -50 37 -100 40 -50 43 -57 34 -88 -5 -19 -8 -35 -6 -36 2 -1
20 -13 41 -25 35 -22 37 -25 37 -77 0 -50 2 -55 27 -65 34 -13 50 -6 65 26 10
23 8 29 -20 58 -34 35 -38 56 -21 105 10 29 8 34 -20 58 -28 24 -31 31 -31 87
0 57 -3 64 -35 97 -33 33 -35 39 -25 65 13 34 5 75 -13 75 -7 0 -21 -6 -30
-12z"/>
</g>
</svg>
